<?xml version="1.0" standalone="no"?>
<!DOCTYPE svg PUBLIC "-//W3C//DTD SVG 1.1//EN" "http://www.w3.org/Graphics/SVG/1.1/DTD/svg11.dtd" >
<svg xmlns="http://www.w3.org/2000/svg">
<metadata></metadata>
<defs>
<font id="rara_dolorbold" horiz-adv-x="324" >
<font-face units-per-em="1000" ascent="750" descent="-250" />
<missing-glyph horiz-adv-x="350" />
<glyph unicode="&#xd;" horiz-adv-x="350" />
<glyph unicode=" "  horiz-adv-x="350" />
<glyph unicode="&#x09;" horiz-adv-x="350" />
<glyph unicode="&#xa0;" horiz-adv-x="350" />
<glyph unicode="!" horiz-adv-x="144" d="M32 180q-12 0 -22 10t-10 22v396q0 12 10 20t22 8t20 -8t8 -20v-396q0 -12 -8 -22t-20 -10zM0 104q0 12 10 20t22 8t20 -8t8 -20v-72q0 -12 -8 -22t-20 -10t-22 10t-10 22v72z" />
<glyph unicode="&#x22;" horiz-adv-x="207" d="M60 500q0 -12 -8 -22t-20 -10t-22 10t-10 22v108q0 12 10 20t22 8t20 -8t8 -20v-108zM104 636q12 0 20 -8t8 -20v-108q0 -12 -8 -22t-20 -10t-22 10t-10 22v108q0 12 10 20t22 8z" />
<glyph unicode="#" horiz-adv-x="539" d="M31 180q-12 0 -22 10t-10 22t10 20t22 8h80l32 156h-76q-12 0 -22 10t-10 22t10 20t22 8h84l32 156q0 12 10 19.5t22 4.5q12 0 19.5 -10t4.5 -22l-24 -148h80l32 156q0 12 10 19.5t22 4.5q12 0 19.5 -10t4.5 -22l-24 -148h68q12 0 20 -8t8 -20t-8 -22t-20 -10h-80 l-32 -156h76q12 0 20 -8t8 -20t-8 -22t-20 -10h-84l-32 -152q0 -12 -8 -20t-20 -8l-4 4q-12 0 -19.5 10t-4.5 22l24 144h-80l-32 -152q0 -12 -8 -20t-20 -8l-4 4q-12 0 -19.5 10t-4.5 22l24 144h-68zM171 240h84l32 156h-84z" />
<glyph unicode="$" horiz-adv-x="431" d="M139 324q-38 0 -64.5 14t-43 35t-24.5 45.5t-8 45.5q0 13 4 27q2 12 7 27t13 30q6 13 16 27.5t24.5 27t34 21.5t45.5 12v44q0 12 10 20t22 8t20 -8t8 -20v-48q24 -3 55.5 -22.5t52.5 -61.5q6 -9 1 -21.5t-17 -18.5q-9 -6 -21.5 -1t-18.5 17q-9 21 -23 31.5t-29 16.5v-188 q27 -3 47.5 -12t35.5 -21.5t25 -27t16 -27.5q8 -15 11.5 -30t5.5 -27q2 -14 3 -27q0 -2 -0.5 -11t-2.5 -23t-7 -32.5t-14 -37.5q-15 -27 -42 -55.5t-78 -40.5v-52q0 -12 -8 -22t-20 -10t-22 10t-10 22v44q-1 -1 -1 -2q-2 -2 -3 -2q-2 0 -17 2t-36 11t-44 27.5t-39 51.5 q-6 9 -1 21.5t17 18.5q9 6 21.5 1t18.5 -17q9 -20 22.5 -30.5t26.5 -15.5t22 -7t9 -3q1 0 3 2q0 1 1 2v260h-4zM287 212q0 4 -1.5 20t-9 34.5t-25 35t-48.5 22.5v-252q21 9 38 24t26 36q8 15 11.5 29.5t5.5 25.5q2 13 3 25zM75 524q-5 -12 -8 -23t-5 -19q-3 -10 -3 -18 q3 0 4.5 -13t7.5 -31q18 -36 68 -36h4v192q-21 -6 -38.5 -18.5t-29.5 -33.5z" />
<glyph unicode="%" horiz-adv-x="469" d="M105 360q-21 0 -40 11t-33 30.5t-22.5 44.5t-8.5 54q0 28 8.5 53t22.5 43.5t33 29t40 10.5t39 -10.5t31.5 -29t21.5 -43.5t8 -53q0 -29 -8 -54t-21.5 -44.5t-31.5 -30.5t-39 -11zM105 576q-15 0 -29.5 -21.5t-14.5 -54.5t14.5 -56.5t29.5 -23.5t27.5 23.5t12.5 56.5 t-12.5 54.5t-27.5 21.5zM373 636q9 -6 13.5 -19t-1.5 -25l-324 -576q-6 -6 -12.5 -11t-15.5 -5q-3 0 -8 2t-8 2q-9 6 -13.5 19t1.5 25l324 576q6 9 19 13.5t25 -1.5zM285 276q21 0 39 -10.5t31.5 -29t21.5 -43.5t8 -53q0 -29 -8 -54t-21.5 -44.5t-31.5 -30.5t-39 -11t-40 11 t-33 30.5t-22.5 44.5t-8.5 54q0 28 8.5 53t22.5 43.5t33 29t40 10.5zM285 60q15 0 27.5 23.5t12.5 56.5t-12.5 54.5t-27.5 21.5t-29.5 -21.5t-14.5 -54.5t14.5 -56.5t29.5 -23.5z" />
<glyph unicode="&#x26;" horiz-adv-x="720" d="M628 164q9 -9 9.5 -20.5t-5.5 -23.5q-12 -12 -24 -12q-6 0 -10 2.5t-10 5.5l-92 76q-6 -9 -12.5 -18t-15.5 -18q-57 -75 -113 -115.5t-107 -40.5q-121 0 -184.5 63.5t-63.5 184.5q0 43 19 76t47.5 56.5t61.5 39t60 24.5q-8 8 -12 8q-15 12 -27.5 23t-21.5 24.5t-14 31 t-5 41.5q0 18 9 41.5t26.5 44.5t43.5 35.5t61 14.5q33 0 58 -13t41.5 -29.5t25.5 -30.5t11 -15q6 -9 1 -21.5t-17 -18.5q-9 -6 -21.5 -1t-18.5 17q-10 15 -21 26q-11 10 -25 18t-34 8q-21 0 -36 -9t-25 -21.5t-14.5 -25.5t-4.5 -20q0 -14 2.5 -23t7.5 -16.5t13.5 -15 t20.5 -17.5q12 -9 26.5 -21t29.5 -27l212 -172q9 15 17 29t11 23q6 12 18.5 17t21.5 -1q12 -6 17 -18.5t-1 -21.5q-3 -3 -12 -20t-24 -44zM248 60q25 0 52 15t52.5 39t50 54t45.5 60l-208 168q-17 -5 -47 -14.5t-59.5 -26.5t-51.5 -43.5t-22 -63.5q0 -97 45.5 -142.5 t142.5 -45.5z" />
<glyph unicode="'" horiz-adv-x="132" d="M60 500q0 -12 -8 -22t-20 -10t-22 10t-10 22v108q0 12 10 20t22 8t20 -8t8 -20v-108v0z" />
<glyph unicode="(" horiz-adv-x="252" d="M137 0q-3 0 -14 2t-26.5 11.5t-32 29.5t-31 55.5t-23.5 89.5t-9 132q0 77 9 130.5t23.5 88.5t31 54.5t32 29t26.5 11.5t14 2q9 -1 16 -4q6 -3 11 -8t5 -16q0 -12 -5 -18.5t-11 -9.5q-7 -4 -16 -4h4q-9 -2 -22.5 -13.5t-26.5 -40t-22 -77.5t-9 -125q0 -92 12 -144t26 -78 q17 -31 38 -38q15 0 23.5 -8t8.5 -20q0 -32 -32 -32z" />
<glyph unicode=")" horiz-adv-x="252" d="M33 0q-32 0 -32 32q0 12 8.5 20t23.5 8q21 7 38 38q14 26 26 78t12 144q0 76 -9 125t-22 77.5t-26.5 40t-22.5 13.5h4q-9 0 -16 4q-6 3 -11 9.5t-5 18.5q0 11 5 16t11 8q7 3 16 4q3 0 14 -2t26.5 -11.5t32 -29t31 -54.5t23.5 -88.5t9 -130.5q0 -78 -9 -132t-23.5 -89.5 t-31 -55.5t-32 -29.5t-26.5 -11.5t-14 -2z" />
<glyph unicode="*" horiz-adv-x="433" d="M321 312q12 0 20 -8t8 -20t-8 -22t-20 -10h-72l56 -56q20 -20 0 -40q-6 -12 -20 -12t-20 12l-60 56v-72q0 -12 -8 -22t-20 -10t-22 10t-10 22v72l-56 -56q-6 -12 -20 -12t-20 12q-9 9 -9 20t9 20l56 56h-72q-12 0 -22 10t-10 22t10 20t22 8h72l-56 60q-9 9 -9 20t9 20 q20 20 40 0l56 -56v72q0 12 10 20t22 8t20 -8t8 -20v-72l60 56q9 9 20 9t20 -9t9 -20t-9 -20l-56 -60h72v0z" />
<glyph unicode="+" horiz-adv-x="431" d="M143 180h-112q-12 0 -22 10t-10 22t10 20t22 8h112v116q0 12 10 20t22 8t20 -8t8 -20v-116h116q12 0 20 -8t8 -20t-8 -22t-20 -10h-116v-112q0 -12 -8 -22t-20 -10t-22 10t-10 22v112z" />
<glyph unicode="," horiz-adv-x="145" d="M-39 -108q-12 0 -22 10t-10 22t10 20t22 8q15 0 23 12.5t12 27.5q4 18 5 40v72q0 12 10 20t22 8t20 -8t8 -20v-72q0 -18 -4.5 -42t-15.5 -46t-30.5 -37t-49.5 -15z" />
<glyph unicode="-" horiz-adv-x="432" d="M32 180q-12 0 -22 10t-10 22t10 20t22 8h288q12 0 20 -8t8 -20t-8 -22t-20 -10h-288v0z" />
<glyph unicode="." horiz-adv-x="145" d="M32 0q-12 0 -22 10t-10 22v72q0 12 10 20t22 8t20 -8t8 -20v-72q0 -12 -8 -22t-20 -10z" />
<glyph unicode="/" horiz-adv-x="212" d="M56 28q0 -12 -8 -20t-20 -8l-4 4q-12 0 -19.5 10t-4.5 22l108 576q0 12 10 19.5t22 4.5q12 0 19.5 -10t4.5 -22l-108 -576v0z" />
<glyph unicode="0" horiz-adv-x="400" d="M156 564q75 0 115.5 -72t40.5 -208t-40.5 -210t-115.5 -74q-72 0 -114 74t-42 210t42 208t114 72zM156 60q34 0 53.5 27.5t29 65t11.5 74.5t2 57q0 13 -0.5 34.5t-3.5 46t-9.5 49t-17 45t-26.5 33t-39 12.5q-22 0 -37.5 -12.5t-26.5 -33t-17 -45t-9.5 -49t-4.5 -46 t-1 -34.5q0 -20 2.5 -57t12.5 -74.5t29 -65t52 -27.5z" />
<glyph unicode="1" horiz-adv-x="248" d="M48 444q-9 -9 -20 -9t-20 9t-9 20t9 20l72 72q14 14 32 8q9 -3 12.5 -11t3.5 -17v-504q0 -12 -8 -22t-20 -10t-22 10t-10 22v432l-20 -20v0z" />
<glyph unicode="2" horiz-adv-x="360" d="M276 32q0 -12 -8 -22t-20 -10h-216q-12 0 -22 10t-10 22q0 39 11 70.5t28 57.5t38.5 48.5t42.5 43.5q19 19 36.5 38.5t31 40.5t21 44.5t7.5 52.5q0 6 -1 13q-1 6 -2.5 14t-4.5 17q-9 18 -26.5 25t-41.5 7t-41.5 -7t-26.5 -25q-6 -18 -7.5 -31t-4.5 -13q0 -12 -8 -20 t-20 -8t-22 8t-10 20q0 21 8 45t24.5 44t43 33.5t64.5 13.5q37 0 63 -13.5t42.5 -33.5t23.5 -44t7 -45q0 -39 -10.5 -70.5t-27 -57.5t-37 -48.5t-41.5 -43.5q-33 -33 -60 -66.5t-36 -81.5h184q12 0 20 -8t8 -20z" />
<glyph unicode="3" horiz-adv-x="364" d="M188 364q15 -8 30.5 -20t28.5 -30.5t21 -43.5t8 -58q0 -69 -18 -111t-44 -64.5t-56 -29.5t-54 -7q-29 0 -48.5 10.5t-32 26.5t-18 34t-5.5 33q0 12 10 20t22 8t20 -8t8 -20q1 -5 3 -12t6.5 -14.5t12.5 -12.5t22 -5q18 0 37.5 4.5t36 20.5t27.5 46t11 81q0 71 -52 100 q-12 5 -23 6.5t-19 3.5q-10 1 -18 2q-9 0 -15.5 5t-12.5 11q-3 9 -2.5 17.5t6.5 14.5l80 132h-92q-12 0 -22 10t-10 22t10 20t22 8h144q16 0 28 -12q3 -9 2.5 -17.5t-6.5 -14.5l-84 -140q9 -3 18 -6.5t18 -9.5z" />
<glyph unicode="4" horiz-adv-x="395" d="M27 180q-9 0 -15 5t-9 11q-6 6 -6.5 14t2.5 14l180 360q6 12 18.5 17t21.5 -1q12 -6 17 -18.5t-1 -21.5l-160 -320h100v152q0 12 10 20t22 8t20 -8t8 -20v-152h44q12 0 20 -8t8 -20t-8 -22t-20 -10h-44v-148q0 -12 -8 -22t-20 -10t-22 10t-10 22v148h-148v0z" />
<glyph unicode="5" horiz-adv-x="360" d="M104 60q18 0 37.5 4.5t36 20.5t27.5 46t11 81q0 71 -52 100q-12 5 -23 6.5t-19 3.5q-10 1 -18 2h-72q-6 0 -12 4.5t-12 7.5q-3 6 -5 12t1 12l36 180q0 12 8 18t20 6h144q12 0 20 -8t8 -20t-8 -22t-20 -10h-120l-24 -120h36q13 -1 27 -3q12 -2 27 -5.5t30 -11.5t30.5 -20 t28.5 -30.5t21 -43.5t8 -58q0 -69 -18 -111t-44 -64.5t-56 -29.5t-54 -7q-29 0 -48.5 10.5t-32 26.5t-18 34t-5.5 33q0 12 10 20t22 8t20 -8t8 -20q1 -5 3 -12t6.5 -14.5t12.5 -12.5t22 -5z" />
<glyph unicode="6" horiz-adv-x="400" d="M156 0q-36 0 -67.5 17t-52.5 47q-15 18 -22 46t-10 58q0 1 -0.5 10t-1.5 19.5t-1.5 19t-0.5 10.5v21q0 194 72 272q15 16 29.5 25t26 13.5t19 5t9.5 0.5q25 0 47 -9t38.5 -25.5t25.5 -38.5t9 -47q0 -12 -8 -20t-20 -8t-22 8t-10 20q0 27 -16 43.5t-40 16.5q-2 0 -13 -3.5 t-25 -17.5t-28.5 -43t-21.5 -80q36 24 84 24q39 0 71 -15t53 -45q15 -24 23.5 -57t8.5 -75q0 -39 -8.5 -71.5t-23.5 -56.5q-21 -30 -53 -47t-71 -17zM156 324q-29 0 -47.5 -11.5t-29 -30.5t-15 -42.5t-4.5 -47.5q0 -23 4.5 -46t15 -42.5t29 -31.5t47.5 -12q30 0 48.5 12 t29 31.5t14.5 42.5t4 46q0 24 -4 47.5t-14.5 42.5t-29 30.5t-48.5 11.5z" />
<glyph unicode="7" horiz-adv-x="360" d="M248 564q9 0 17 -5.5t11 -14.5q6 -23 6.5 -57.5t-11 -74t-39 -79.5t-76.5 -73q-22 -15 -35 -37t-19.5 -46.5t-8.5 -49.5t-1 -44.5t2.5 -32.5t1.5 -14q3 -12 -3 -22t-21 -10l-4 -4q-12 0 -20 8t-8 20q-1 2 -4 18t-4 40.5t2 54.5t12.5 60.5t28 58.5t49.5 48 q36 25 56.5 53.5t31 55t12 49.5t0.5 38h-192q-12 0 -22 10t-10 22t10 20t22 8h216v0z" />
<glyph unicode="8" horiz-adv-x="396" d="M244 360q18 -12 36 -36q15 -24 23.5 -57t8.5 -75q0 -39 -8.5 -71.5t-23.5 -56.5q-21 -30 -53 -47t-71 -17q-36 0 -67.5 17t-52.5 47q-15 24 -25.5 56.5t-10.5 71.5q0 42 10.5 75t25.5 57q18 24 36 36q-15 18 -25.5 39t-10.5 45q0 25 9.5 47t26 38.5t38.5 25.5t46 9 q25 0 47 -9t38.5 -25.5t25.5 -38.5t9 -47q0 -46 -32 -84zM96 444q0 -24 18 -42t42 -18q27 0 43.5 18t16.5 42q0 27 -16.5 43.5t-43.5 16.5q-24 0 -42 -16.5t-18 -43.5zM156 60q30 0 48.5 12t29 31.5t14.5 42.5t4 46q0 24 -4 47.5t-14.5 42.5t-29 30.5t-48.5 11.5 q-29 0 -47.5 -11.5t-29 -30.5t-15 -42.5t-4.5 -47.5q0 -23 4.5 -46t15 -42.5t29 -31.5t47.5 -12z" />
<glyph unicode="9" horiz-adv-x="360" d="M140 564q63 0 99.5 -45.5t36.5 -126.5v-72q0 -97 -16 -165t-52 -107q-15 -17 -29.5 -26.5t-26.5 -14t-20.5 -6t-11.5 -1.5q-24 0 -46 9.5t-38.5 26t-26 38.5t-9.5 46q0 15 10 23.5t22 8.5t20 -8.5t8 -23.5q0 -24 18 -40t42 -16q1 0 13.5 4t28.5 21t31 52.5t23 98.5 q-36 -24 -76 -24q-63 0 -101.5 47.5t-38.5 128.5t38.5 126.5t101.5 45.5zM140 276q24 0 39 11t23 27.5t11 37t3 40.5q0 19 -3 39t-11 36.5t-23 26.5t-39 10t-39.5 -10t-24.5 -26.5t-12.5 -36.5t-3.5 -39q0 -20 3.5 -40.5t12.5 -37t24.5 -27.5t39.5 -11z" />
<glyph unicode=":" horiz-adv-x="145" d="M32 252q-12 0 -22 10t-10 22v72q0 12 10 20t22 8t20 -8t8 -20v-72q0 -12 -8 -22t-20 -10zM32 0q-12 0 -22 10t-10 22v72q0 12 10 20t22 8t20 -8t8 -20v-72q0 -12 -8 -22t-20 -10z" />
<glyph unicode=";" horiz-adv-x="145" d="M33 252q-12 0 -22 10t-10 22v72q0 12 10 20t22 8t20 -8t8 -20v-72q0 -12 -8 -22t-20 -10zM-39 -108q-12 0 -22 10t-10 22t10 20t22 8q15 0 23 12.5t12 27.5q4 18 5 40v72q0 12 10 20t22 8t20 -8t8 -20v-72q0 -18 -4.5 -42t-15.5 -46t-30.5 -37t-49.5 -15z" />
<glyph unicode="&#x3c;" horiz-adv-x="327" d="M271 372q9 -9 6.5 -21.5t-14.5 -18.5l-176 -120l176 -120q12 -6 14.5 -18.5t-6.5 -21.5q-3 -6 -10.5 -11t-13.5 -5q-8 0 -16 8l-216 144q-6 3 -11 9t-5 15t5 15t11 9l216 144q9 9 21.5 6.5t18.5 -14.5z" />
<glyph unicode="=" horiz-adv-x="432" d="M32 288q-12 0 -22 10t-10 22t10 20t22 8h288q12 0 20 -8t8 -20t-8 -22t-20 -10h-288zM32 144q-12 0 -22 10t-10 22t10 20t22 8h288q12 0 20 -8t8 -20t-8 -22t-20 -10h-288z" />
<glyph unicode="&#x3e;" horiz-adv-x="327" d="M11 372q6 12 18.5 14.5t21.5 -6.5l216 -144q6 -3 11 -9t5 -15t-5 -15t-11 -9l-216 -144q-3 -3 -8 -5.5t-8 -2.5q-6 0 -13.5 5t-10.5 11q-9 9 -6.5 21.5t14.5 18.5l176 120l-176 120q-12 6 -14.5 18.5t6.5 21.5z" />
<glyph unicode="?" horiz-adv-x="396" d="M176 636q37 0 63 -13.5t42.5 -33.5t23.5 -44t7 -45q0 -2 -1.5 -22.5t-9.5 -48.5t-26 -56.5t-51 -44.5q-26 -12 -37.5 -30.5t-16 -36t-3.5 -31t1 -14.5q3 -12 -4.5 -22t-19.5 -10h-4q-12 0 -20 6t-8 18q-3 15 -2 38t10 48.5t28 49t52 40.5q20 9 30 28t15 39q5 23 7 49 q0 6 -1 13q-1 6 -2.5 14t-4.5 17q-9 18 -26.5 25t-41.5 7q-41 0 -63.5 -11t-33.5 -24.5t-14.5 -25.5t-4.5 -15q0 -12 -8 -22t-20 -10t-22 10t-10 22q0 18 8.5 41.5t28.5 44.5t54 35.5t85 14.5zM168 32q0 -12 -8 -22t-20 -10t-22 10t-10 22v72q0 12 10 20t22 8t20 -8t8 -20 v-72z" />
<glyph unicode="@" horiz-adv-x="684" d="M300 492q63 0 117.5 -24.5t95 -67.5t64 -100.5t23.5 -123.5q0 -32 -8 -69t-24.5 -68.5t-42 -53t-61.5 -21.5q-32 0 -51.5 7.5t-30 18t-14.5 21.5t-4 17l-72 -24q-2 -1 -3 -2q-4 -2 -5 -2q-21 0 -45.5 8t-45.5 24.5t-35 43t-14 64.5q0 45 12.5 81.5t28 62t28.5 40t15 16.5 q1 1 9 8.5t20.5 15t28.5 14t34 6.5q28 0 47.5 -10t31 -25t16.5 -32.5t5 -32.5v-216v-32q3 -3 11.5 -7.5t32.5 -4.5q18 0 32 15.5t24 38t15 49t5 49.5q0 54 -18.5 100.5t-50.5 81t-76 54.5t-95 20q-50 0 -93.5 -20t-76 -54.5t-51.5 -81t-19 -100.5t19 -101.5t51.5 -82.5 t76 -55.5t93.5 -20.5q15 0 23.5 -8t8.5 -20t-8.5 -22t-23.5 -10q-62 0 -116.5 25t-95 68.5t-64.5 102t-24 124.5t24 123.5t64.5 100.5t95 67.5t116.5 24.5zM360 284q0 4 -1 11t-5.5 13.5t-12.5 11t-21 4.5q-12 0 -27.5 -9t-24.5 -15q-18 -21 -32 -46q-12 -22 -22 -50.5 t-10 -63.5q0 -24 11 -41.5t29 -26.5q9 -6 19.5 -7t16.5 -1l80 24v196z" />
<glyph unicode="A" horiz-adv-x="501" d="M417 40q3 -12 -2.5 -22.5t-17.5 -13.5q-3 0 -4 -2t-4 -2q-9 0 -17 7.5t-11 16.5l-60 192h-184l-60 -192q-3 -12 -13.5 -17.5t-22.5 -2.5t-17.5 13.5t-2.5 22.5l180 576q3 9 11 14.5t17 5.5t17 -5.5t11 -14.5zM281 276l-72 232l-72 -232h144z" />
<glyph unicode="B" horiz-adv-x="396" d="M208 360q18 -9 36.5 -23.5t33.5 -37t24.5 -53t9.5 -70.5q0 -110 -108 -152q-18 -8 -35.5 -12.5t-31 -7t-23 -3.5t-10.5 -1h-72q-12 0 -22 10t-10 22v576q0 12 8 20t20 8q4 1 27 4t54.5 1.5t65.5 -10.5t61 -31q21 -18 30.5 -44t9.5 -56q0 -57 -20.5 -89.5t-47.5 -50.5z M60 384h44q4 1 22.5 4.5t38 14.5t35.5 33.5t16 63.5q0 18 -4 31t-16 25q-12 9 -29 14.5t-36 8t-37.5 2.5t-33.5 -1v-196zM104 60q3 1 26.5 4t50.5 13.5t49 33.5t22 65q0 91 -68 128q-15 8 -29.5 11.5t-25.5 5.5q-13 2 -25 3h-44v-264h44z" />
<glyph unicode="C" horiz-adv-x="432" d="M28 132q-21 51 -24.5 110t-3.5 110t20.5 101.5t52 91t67.5 66t68 25.5h4q36 0 61 -11t41.5 -27.5t24 -34.5t9.5 -31q-1 -8 -3 -13t-5.5 -9t-11.5 -6q-9 -2 -16.5 0.5t-12.5 7.5q-6 4 -11 12q0 3 -3 11.5t-11 17.5t-23 16t-39 7q-17 0 -42.5 -18.5t-50 -50t-42 -72 t-17.5 -83.5q0 -59 4.5 -110.5t21.5 -91t51.5 -63.5t94.5 -27l64 64q9 9 22 9t22 -9t9 -22t-9 -22l-72 -72q-6 -3 -12 -5.5t-12 -2.5q-78 0 -133.5 33t-82.5 99z" />
<glyph unicode="D" horiz-adv-x="432" d="M356 340q0 -48 -5.5 -106t-26.5 -106q-55 -128 -212 -128h-80q-12 0 -22 10t-10 22v576q0 14 12 20q7 14 20 8h104q33 0 72 -19.5t72 -52.5q13 -14 27.5 -33.5t25.5 -45.5t17.5 -59.5t5.5 -73.5v-12zM296 352q1 33 -4 60t-14 48.5t-20.5 37t-21.5 26.5q-27 27 -54.5 39.5 t-45.5 12.5h-76v-516h52q61 0 97 22t55 59.5t24.5 88.5t7.5 110v12z" />
<glyph unicode="E" horiz-adv-x="396" d="M0 608q0 12 10 20t22 8h252q12 0 20 -8t8 -20t-8 -22t-20 -10h-224v-192h152q12 0 20 -8t8 -20t-8 -22t-20 -10h-152v-264h224q12 0 20 -8t8 -20t-8 -22t-20 -10h-252q-12 0 -22 10t-10 22v576v0z" />
<glyph unicode="F" d="M60 576v-192h152q12 0 20 -8t8 -20t-8 -22t-20 -10h-152v-292q0 -12 -8 -22t-20 -10t-22 10t-10 22v576q0 12 10 20t22 8h252q12 0 20 -8t8 -20t-8 -22t-20 -10h-224z" />
<glyph unicode="G" horiz-adv-x="432" d="M32 132q-12 25 -18.5 53t-9.5 56.5t-3.5 56.5t-0.5 54q0 51 20.5 101.5t52 91t69 66t70.5 25.5q36 0 61 -11t41.5 -27.5t25.5 -34.5t12 -31q0 -7 -3 -13q-2 -5 -7 -10.5t-14 -8.5q-12 -2 -19 1.5t-11 8.5t-6 14q-2 3 -5.5 11.5t-12 17.5t-23.5 16t-39 7 q-17 0 -42.5 -18.5t-50 -50t-42 -72t-17.5 -83.5q0 -59 5 -110.5t23 -91t53 -63.5t95 -27l52 56v172h-76q-12 0 -22 8t-10 20q0 15 10 23.5t22 8.5h108q12 0 20 -8.5t8 -23.5v-216q0 -6 -1 -10t-7 -10l-72 -72q-3 -3 -8.5 -5.5t-11.5 -2.5q-162 0 -216 132z" />
<glyph unicode="H" horiz-adv-x="432" d="M60 324v-292q0 -12 -8 -22t-20 -10t-22 10t-10 22v576q0 12 10 20t22 8t20 -8t8 -20v-224h228v224q0 12 10 20t22 8t20 -8t8 -20v-576q0 -12 -8 -22t-20 -10t-22 10t-10 22v292h-228z" />
<glyph unicode="I" horiz-adv-x="145" d="M61 32q0 -12 -8 -22t-20 -10t-22 10t-10 22v576q0 12 10 20t22 8t20 -8t8 -20v-576v0z" />
<glyph unicode="J" horiz-adv-x="145" d="M-107 -76q0 12 10 20t22 8q24 0 41.5 11t26.5 29q5 13 7 27q1 6 1 13v576q0 12 10 20t22 8t20 -8t8 -20v-576q0 -21 -7 -45.5t-23.5 -45.5t-42.5 -35t-63 -14q-12 0 -22 10t-10 22z" />
<glyph unicode="K" horiz-adv-x="433" d="M61 272v-240q0 -12 -8 -22t-20 -10t-22 10t-10 22v576q0 12 10 20t22 8t20 -8t8 -20v-236l200 256q9 9 20.5 9.5t23.5 -5.5q9 -9 9.5 -20.5t-5.5 -23.5l-172 -220l244 -316q6 -12 5.5 -23.5t-9.5 -20.5q-6 -3 -10 -5.5t-10 -2.5q-12 0 -24 12l-236 304z" />
<glyph unicode="L" horiz-adv-x="365" d="M33 636q12 0 20 -8t8 -20v-548h224q12 0 20 -8t8 -20t-8 -22t-20 -10h-252q-12 0 -22 10t-10 22v576q0 12 10 20t22 8z" />
<glyph unicode="M" horiz-adv-x="645" d="M29 4q-15 0 -23 8t-5 20l36 576q0 12 5.5 20t14.5 8q24 6 36 -12l188 -348l188 348q12 18 36 12q9 0 14.5 -8t5.5 -20l36 -576q3 -12 -5 -20t-23 -8v-4q-12 0 -20 10t-8 22l-32 472l-164 -308q-6 -6 -12.5 -11t-15.5 -5t-15.5 5t-12.5 11l-164 308l-32 -472q0 -15 -8 -23 t-20 -5z" />
<glyph unicode="N" horiz-adv-x="468" d="M356 0q-9 0 -15.5 5t-12.5 11l-268 476v-460q0 -12 -8 -22t-20 -10t-22 10t-10 22v576q0 9 7.5 17t16.5 11t19.5 0t16.5 -12l264 -476v460q0 12 10 20t22 8t20 -8t8 -20v-576q0 -9 -5.5 -17t-14.5 -11q-3 0 -4 -2t-4 -2z" />
<glyph unicode="O" horiz-adv-x="468" d="M368 84q-8 -15 -19.5 -30t-28 -27t-39.5 -19.5t-53 -7.5q-21 0 -46 11.5t-50.5 31.5t-49 47t-42 59t-29.5 67.5t-11 71.5v192q0 3 4 26t16 50q15 30 47.5 55t92.5 25q31 0 70 -24t73.5 -64t57.5 -91t23 -105v-192q0 -3 -2 -26t-14 -50zM60 288q0 -44 19.5 -85t46.5 -72.5 t55.5 -51t46.5 -19.5q36 0 55.5 14.5t28.5 32.5t10.5 34t1.5 19v192q0 43 -19 83.5t-45 72t-54 50t-46 18.5q-36 0 -55.5 -14t-29 -31t-12 -32.5t-3.5 -18.5v-192z" />
<glyph unicode="P" horiz-adv-x="396" d="M204 616q108 -42 108 -152t-108 -152q-18 -8 -35.5 -12.5t-31 -7t-23 -3.5t-10.5 -1h-44v-256q0 -12 -8 -22t-20 -10t-22 10t-10 22v576q0 12 10 20t22 8h72q1 0 10.5 -0.5t23 -2t31 -6t35.5 -11.5zM104 348q3 1 26.5 4t50.5 13.5t49 33.5t22 65q0 36 -16 60.5t-52 39.5 q-15 5 -29.5 6.5t-25.5 3.5q-13 1 -25 2h-44v-228h44z" />
<glyph unicode="Q" horiz-adv-x="504" d="M20 556q15 30 47.5 55t92.5 25q31 0 70 -24t73.5 -64t57.5 -91t23 -105v-192q0 -3 -2 -26t-14 -50q-12 -21 -32.5 -42.5t-59.5 -33.5v-84q0 -12 -8 -22t-20 -10t-22 10t-10 22v80q-30 3 -67.5 28t-70.5 64.5t-55.5 89t-22.5 102.5v192q0 3 4 26t16 50zM60 288 q0 -41 17.5 -79t42.5 -69t51.5 -51.5t44.5 -24.5v76q0 12 10 20t22 8t20 -8t8 -20v-68q18 9 27.5 22.5t14 27t5.5 24.5t1 14v192q0 43 -19 83.5t-45 72t-54 50t-46 18.5q-36 0 -55.5 -14t-29 -31t-12 -32.5t-3.5 -18.5v-192z" />
<glyph unicode="R" horiz-adv-x="396" d="M108 324h-4h-44v-296q0 -12 -8 -22t-20 -10t-22 10t-10 22v576q0 12 8 20t20 8q4 1 27 4t54.5 1.5t65.5 -10.5t61 -31q21 -18 30.5 -44t9.5 -56q0 -39 -10 -69t-34 -51l-8 -8v-4q15 -8 30.5 -20t28.5 -30.5t21 -43.5t8 -58v-180q0 -12 -8 -22t-20 -10t-22 10t-10 22v180 q0 40 -16 63t-35.5 33.5t-38 13t-22.5 2.5h-32zM104 384h4q3 1 12 2.5t21 4.5t25.5 8.5t25.5 16.5q24 30 24 80q0 18 -4 31t-16 25q-12 9 -29 14.5t-36 8t-37.5 2.5t-33.5 -1v-192h44z" />
<glyph unicode="S" horiz-adv-x="396" d="M176 384q33 0 58 -8t43.5 -21t30.5 -28.5t20 -30.5t11.5 -30t5.5 -27q2 -14 3 -27q0 -2 -0.5 -11t-2.5 -23t-7 -32.5t-14 -37.5q-9 -18 -23.5 -37t-37 -35t-53 -26t-70.5 -10q-2 0 -17 2t-36 11t-44 27.5t-39 51.5q-6 9 -1 21.5t17 18.5q9 6 21.5 1t18.5 -17 q9 -20 22.5 -30.5t26.5 -15.5t22 -7t9 -3q45 0 77.5 19.5t50.5 52.5q8 15 11.5 29.5t5.5 25.5q2 13 3 25q0 4 -2.5 22.5t-13 38t-33.5 35.5t-63 16h-36q-38 0 -64.5 14t-43 35t-24.5 45.5t-8 45.5q0 13 4 27q2 12 7 27t13 30q7 15 19.5 30.5t31 28.5t43.5 21t58 8 q1 0 16.5 -1.5t36.5 -9.5t43.5 -26t39.5 -51q6 -9 1 -21.5t-17 -18.5q-9 -6 -21.5 -1t-18.5 17q-11 20 -25 30t-26 15q-15 5 -29 7q-71 0 -100 -52q-5 -12 -8 -23t-5 -19q-3 -10 -3 -18q3 0 4.5 -13t7.5 -31q18 -36 68 -36h36v0z" />
<glyph unicode="T" horiz-adv-x="466" d="M390 636q12 0 20 -8t8 -20t-8 -22t-20 -10h-152v-544q0 -12 -8 -22t-20 -10t-22 10t-10 22v544h-148q-12 0 -22 10t-10 22t10 20t22 8h360v0z" />
<glyph unicode="U" horiz-adv-x="471" d="M355 636q12 0 20 -8t8 -20v-448q0 -3 -2 -26t-14 -50q-8 -15 -19.5 -30t-28 -27t-39.5 -19.5t-53 -7.5q-20 0 -39.5 8t-39 21.5t-37 29.5t-32.5 33q-36 45 -57.5 96.5t-21.5 99.5q6 68 13 130q3 26 6 53.5t6.5 53.5t7 48.5t6.5 38.5q0 12 10 19.5t22 4.5q12 0 19.5 -10 t4.5 -22l-32 -316q0 -44 19 -85t45 -72.5t54 -51t46 -19.5q36 0 55.5 14.5t28.5 32.5t10.5 34t1.5 19v448q0 12 10 20t22 8z" />
<glyph unicode="V" horiz-adv-x="469" d="M361 636q12 -3 17.5 -13.5t2.5 -22.5l-144 -576q-3 -9 -9.5 -14.5t-18.5 -5.5v-4q-9 0 -17 7.5t-11 16.5l-180 576q-3 12 2.5 22.5t17.5 13.5t22.5 -2.5t13.5 -17.5l148 -472l120 472q3 12 13.5 17.5t22.5 2.5z" />
<glyph unicode="W" horiz-adv-x="648" d="M576 636q12 -3 17.5 -13.5t2.5 -22.5l-144 -576q-3 -9 -9.5 -14.5t-18.5 -5.5v-4q-9 0 -17 7.5t-11 16.5l-88 280l-72 -280q-3 -9 -9.5 -14.5t-18.5 -5.5v-4q-9 0 -17 7.5t-11 16.5l-180 576q-3 12 2.5 22.5t17.5 13.5t22.5 -2.5t13.5 -17.5l148 -472l68 272l-56 184 q-3 12 2.5 22.5t17.5 13.5t22.5 -2.5t13.5 -17.5l28 -88l24 88q3 12 13.5 17.5t22.5 2.5t17.5 -13.5t2.5 -22.5l-44 -184l84 -272l120 472q3 12 13.5 17.5t22.5 2.5z" />
<glyph unicode="X" horiz-adv-x="440" d="M388 44q6 -9 1 -21.5t-17 -18.5q-3 0 -6 -2t-6 -2q-9 0 -15.5 5.5t-12.5 14.5l-136 268l-132 -268q-6 -9 -12.5 -14.5t-15.5 -5.5q-3 0 -6 2t-6 2q-12 6 -17 18.5t1 21.5l156 312l-120 240q-6 9 -1 21.5t17 18.5q9 6 21.5 1t18.5 -17l96 -196l100 196q6 12 18.5 17 t21.5 -1q12 -6 17 -18.5t-1 -21.5l-120 -240z" />
<glyph unicode="Y" horiz-adv-x="396" d="M332 636q12 -6 17 -18.5t-1 -21.5l-144 -284v-280q0 -12 -8 -22t-20 -10t-22 10t-10 22v280l-140 284q-6 9 -1 21.5t17 18.5q9 6 21.5 1t18.5 -17l116 -232l116 232q6 12 18.5 17t21.5 -1z" />
<glyph unicode="Z" horiz-adv-x="431" d="M318 60q12 0 20 -8t8 -20t-8 -22t-20 -10h-288q-9 0 -15 5t-9 11q-6 6 -6.5 14t2.5 14l268 532h-240q-12 0 -22 10t-10 22t10 20t22 8h288q18 0 24 -12q6 -6 6.5 -14t-2.5 -14l-268 -536h240v0z" />
<glyph unicode="[" horiz-adv-x="216" d="M32 0q-12 0 -22 10t-10 22v576q0 12 10 20t22 8h72q12 0 20 -8t8 -20t-8 -22t-20 -10h-44v-516h44q12 0 20 -8t8 -20t-8 -22t-20 -10h-72v0z" />
<glyph unicode="\" horiz-adv-x="212" d="M108 28l-108 576q-3 12 4.5 22t19.5 10q12 3 22 -4.5t10 -19.5l108 -576q3 -12 -4.5 -22t-19.5 -10l-4 -4q-12 0 -20 8t-8 20z" />
<glyph unicode="]" horiz-adv-x="216" d="M100 0h-72q-12 0 -20 10t-8 22t8 20t20 8h44v516h-44q-12 0 -20 10t-8 22t8 20t20 8h72q12 0 22 -8t10 -20v-576q0 -12 -10 -22t-22 -10z" />
<glyph unicode="^" horiz-adv-x="430" d="M342 228q9 -9 6.5 -21.5t-14.5 -18.5q-3 -3 -8 -5.5t-8 -2.5q-6 0 -13.5 5t-10.5 11l-120 176l-120 -176q-6 -12 -18.5 -14.5t-21.5 6.5q-12 6 -14.5 18.5t6.5 21.5l144 216q6 12 24 12t24 -12z" />
<glyph unicode="_" horiz-adv-x="583" d="M32 0q-12 0 -22 10t-10 22t10 20t22 8h438q12 0 20 -8t8 -20t-8 -22t-20 -10h-438v0z" />
<glyph unicode="`" horiz-adv-x="285" d="M9 556q20 20 40 0l72 -72q9 -9 9 -20t-9 -20q-6 -12 -20 -12t-20 12l-72 72q-9 9 -9 20t9 20z" />
<glyph unicode="a" horiz-adv-x="360" d="M212 0q-12 0 -20 8t-8 20l-72 -24q-2 -1 -3 -2q-4 -2 -5 -2q-15 0 -33 5.5t-34 18t-26.5 32t-10.5 48.5q0 12 4 29t16 34.5t34 33.5t58 27q42 12 68 12v44q0 4 -1 11t-5.5 13.5t-12.5 11t-21 4.5q-12 0 -29 -9t-23 -15q-9 -9 -20 -9t-20 9t-9 20t9 20q1 1 9 8.5t20.5 15 t28.5 14t34 6.5q28 0 47.5 -10t31 -25t16.5 -32.5t5 -32.5v-216v-36q0 -12 -8 -22t-20 -10zM180 88v92q-15 -2 -35.5 -6t-39.5 -12.5t-32 -22.5t-13 -35q0 -24 14 -32t26 -8z" />
<glyph unicode="b" d="M0 536q0 12 10 20t22 8t20 -8t8 -20v-156q9 3 20.5 3.5t23.5 0.5q21 0 45 -15t44 -39.5t33.5 -55.5t13.5 -62q0 -30 -2.5 -64.5t-17.5 -67.5q-37 -80 -152 -80q-6 0 -9.5 2.5t-6.5 5.5q-6 -3 -10 -5.5t-10 -2.5q-12 0 -22 10t-10 22v36v468zM104 328q-14 -2 -22 -7 t-12.5 -12t-6.5 -14t-3 -11v-204l20 -16q36 1 56 12.5t30 31t12 46t2 58.5q0 21 -9.5 41t-22.5 36.5t-25.5 26.5t-18.5 12z" />
<glyph unicode="c" d="M176 0q-115 0 -152 80q-18 33 -21 67.5t-3 64.5q0 31 14 62t35 55.5t45.5 39.5t45.5 15q28 0 47.5 -10t31 -25t16.5 -32.5t5 -32.5q0 -12 -8 -22t-20 -10t-20.5 10t-11.5 22q0 4 -1 11t-5.5 13.5t-12.5 11t-21 4.5q-6 0 -19.5 -9.5t-27 -25.5t-23.5 -36t-10 -41 q0 -32 2.5 -58.5t13 -46t31.5 -31t57 -12.5l28 24q9 9 20 9t20 -9q20 -20 0 -40l-36 -36q-6 -12 -20 -12z" />
<glyph unicode="d" d="M176 0q-115 0 -152 80q-18 33 -21 67.5t-3 64.5q0 31 14 62t35 55.5t45.5 39.5t45.5 15q12 0 23 -0.5t17 -3.5v156q0 12 10 20t22 8t20 -8t8 -20v-468v-36q0 -12 -8 -22t-20 -10q-6 0 -10 2.5t-10 5.5q-3 -3 -6.5 -5.5t-9.5 -2.5zM140 324q-6 0 -19.5 -9.5t-27 -25.5 t-23.5 -36t-10 -41q0 -32 2.5 -58.5t13 -46t31.5 -31t57 -12.5l16 16v204q0 4 -1 11t-5.5 13.5t-12.5 11t-21 4.5z" />
<glyph unicode="e" horiz-adv-x="325" d="M5 168q0 3 -2 4t-2 4l4 4q-3 9 -3.5 17.5t-0.5 14.5q0 31 14 62t35 55.5t45.5 39.5t45.5 15q28 0 47.5 -10t31 -25t16.5 -32.5t5 -32.5q0 -18 -4.5 -42t-15.5 -46t-30.5 -37t-49.5 -15h-76q6 -36 27.5 -58t72.5 -22l28 24q9 9 20 9t20 -9q20 -20 0 -40l-36 -36 q-6 -12 -20 -12q-115 0 -152 80q-12 21 -16 44t-4 44zM141 324q-6 0 -19.5 -9.5t-27 -25.5t-23.5 -36t-10 -41q0 -3 2 -4t2 -4h76q15 0 23 12.5t12 27.5q4 18 5 40q0 4 -1 11t-5.5 13.5t-12.5 11t-21 4.5z" />
<glyph unicode="f" horiz-adv-x="211" d="M173 464q-14 0 -21 6t-9 14q-4 9 -2 20h-4q-5 0 -12 -1t-14.5 -5.5t-12.5 -12.5t-5 -21v-80h44q12 0 20 -8t8 -20t-8 -22t-20 -10h-44v-292q0 -12 -8 -22t-20 -10t-22 10t-10 22v292h-4q-12 0 -22 10t-10 22t10 20t22 8h4v80q0 28 10.5 47.5t26.5 31t34 16.5t33 5 q36 0 54 -18.5t18 -45.5q-1 -10 -5 -18q-4 -7 -10.5 -12.5t-20.5 -5.5z" />
<glyph unicode="g" d="M176 0q-115 0 -152 80q-18 33 -21 67.5t-3 64.5q0 31 14 62t35 55.5t45.5 39.5t45.5 15q15 0 27 -2.5t21 -5.5q6 3 12 5.5t12 2.5q12 0 20 -8t8 -20v-288v-144q0 -18 -8 -42t-27.5 -46t-52.5 -37t-84 -15q-12 0 -22 10t-10 22t10 20t22 8q42 0 64.5 12t33 26.5t12.5 27 t2 14.5v80q-1 -1 -1 -2q-2 -2 -3 -2zM140 324q-6 0 -19.5 -9.5t-27 -25.5t-23.5 -36t-10 -41q0 -32 2.5 -58.5t13 -46t31.5 -31t57 -12.5l16 16v204q0 4 -1 11t-5.5 13.5t-12.5 11t-21 4.5z" />
<glyph unicode="h" d="M32 0q-12 0 -22 10t-10 22v504q0 12 10 20t22 8t20 -8t8 -20v-156q9 3 20.5 3.5t23.5 0.5q21 0 45 -15t44 -39.5t33.5 -55.5t13.5 -62v-180q0 -12 -8 -22t-20 -10t-22 10t-10 22v180q0 21 -9.5 41t-22.5 36.5t-25.5 26.5t-18.5 12q-14 -2 -22 -7t-12.5 -12t-6.5 -14 t-3 -11v-252q0 -12 -8 -22t-20 -10z" />
<glyph unicode="i" horiz-adv-x="144" d="M32 0q-12 0 -22 10t-10 22v324q0 12 10 20t22 8t20 -8t8 -20v-324q0 -12 -8 -22t-20 -10zM32 432q-12 0 -22 10t-10 22v72q0 12 10 20t22 8t20 -8t8 -20v-72q0 -12 -8 -22t-20 -10z" />
<glyph unicode="j" horiz-adv-x="144" d="M-108 -184q0 12 10 20t22 8q50 0 68 36q3 9 4.5 17t2.5 14q1 7 1 13v432q0 12 10 20t22 8t20 -8t8 -20v-432q0 -21 -7 -45.5t-23.5 -45.5t-42.5 -35t-63 -14q-12 0 -22 10t-10 22zM32 432q-12 0 -22 10t-10 22v72q0 12 10 20t22 8t20 -8t8 -20v-72q0 -12 -8 -22t-20 -10z " />
<glyph unicode="k" d="M0 464q0 12 10 20t22 8t20 -8t8 -20v-180l24 20l72 72q20 20 40 0q9 -9 9 -20t-9 -20l-40 -40q16 -12 31.5 -29.5t27 -38t18.5 -43.5t7 -45v-108q0 -12 -8 -22t-20 -10t-22 10t-10 22v108q0 19 -7.5 37.5t-18 33.5t-22 25.5t-20.5 15.5l-52 -52v-168q0 -12 -8 -22 t-20 -10t-22 10t-10 22v180v252z" />
<glyph unicode="l" horiz-adv-x="180" d="M104 0q-30 0 -50 15t-32 37t-17 46t-5 42v396q0 12 10 20t22 8t20 -8t8 -20v-396q1 0 2.5 -12.5t6 -27.5t12.5 -27.5t23 -12.5q12 0 20 -8t8 -20t-8 -22t-20 -10z" />
<glyph unicode="m" horiz-adv-x="504" d="M32 0q-12 0 -22 10t-10 22v324q0 12 10 20t22 8q6 0 12 -2.5t12 -5.5q9 3 21 5.5t27 2.5q21 0 45.5 -14t42.5 -38q12 21 34 36.5t58 15.5q21 0 45 -15t44 -39.5t33.5 -55.5t13.5 -62v-180q0 -12 -8 -22t-20 -10t-22 10t-10 22v180q0 21 -9.5 41t-22.5 36.5t-25.5 26.5 t-18.5 12q-14 -2 -22 -7t-12.5 -12t-6.5 -14t-3 -11v-72v-180q0 -12 -8 -22t-20 -10t-22 10t-10 22v180q0 21 -9.5 41t-22.5 36.5t-25.5 26.5t-18.5 12q-14 -2 -22 -7t-12.5 -12t-6.5 -14t-3 -11v-252q0 -12 -8 -22t-20 -10z" />
<glyph unicode="n" horiz-adv-x="325" d="M33 0q-12 0 -22 10t-10 22v324q0 12 10 20t22 8q6 0 12 -2.5t12 -5.5q9 3 21 5.5t27 2.5q21 0 45 -15t44 -39.5t33.5 -55.5t13.5 -62v-180q0 -12 -8 -22t-20 -10t-22 10t-10 22v180q0 21 -9.5 41t-22.5 36.5t-25.5 26.5t-18.5 12q-14 -2 -22 -7t-12.5 -12t-6.5 -14 t-3 -11v-252q0 -12 -8 -22t-20 -10z" />
<glyph unicode="o" horiz-adv-x="325" d="M141 0q-21 0 -45.5 15.5t-45.5 41t-35 56.5t-14 63v108q0 15 5.5 32.5t18 32.5t32 25t48.5 10q21 0 45 -15t44 -39.5t33.5 -55.5t13.5 -62v-108q0 -15 -5 -33t-16.5 -34t-31 -26.5t-47.5 -10.5zM61 176q0 -21 10 -41t23.5 -36.5t27 -27t19.5 -11.5q13 1 21 6.5t12.5 12.5 t5.5 13.5t1 11.5v108q0 21 -9.5 41t-22.5 36.5t-25.5 26.5t-18.5 12q-14 -2 -22 -7t-12.5 -12t-6.5 -14t-3 -11v-108z" />
<glyph unicode="p" horiz-adv-x="325" d="M1 356q0 12 10 20t22 8q6 0 10 -0.5t10 -3.5q3 3 6.5 3.5t9.5 0.5q57 0 95.5 -18.5t56.5 -57.5q15 -33 17.5 -67.5t2.5 -64.5q0 -32 -13.5 -63t-33.5 -56.5t-44 -41t-45 -15.5q-12 0 -23.5 2.5t-20.5 5.5v-156q0 -12 -8 -22t-20 -10t-22 10t-10 22v468v36zM61 308v-204 q1 -5 3 -12t6.5 -14.5t12.5 -12.5t22 -5q6 1 18.5 11.5t25.5 27t22.5 36.5t9.5 41q0 31 -2 57.5t-12 46t-30 31t-56 13.5z" />
<glyph unicode="q" horiz-adv-x="325" d="M141 0q-21 0 -45.5 15.5t-45.5 41t-35 56.5t-14 63q0 30 3 64.5t21 67.5q18 39 56.5 57.5t95.5 18.5q6 0 9.5 -0.5t6.5 -3.5q6 3 10 3.5t10 0.5q12 0 20 -8t8 -20v-36v-468q0 -12 -8 -22t-20 -10t-22 10t-10 22v156q-6 -3 -17 -5.5t-23 -2.5zM165 324q-36 -2 -57 -13.5 t-31.5 -31t-13 -46t-2.5 -57.5q0 -21 10 -41t23.5 -36.5t27 -27t19.5 -11.5q13 0 21 5t12.5 12.5t5.5 14.5t1 12v204z" />
<glyph unicode="r" horiz-adv-x="217" d="M141 384q12 0 20 -8t8 -20t-8 -22t-20 -10h-36q-14 0 -22 -4.5t-12.5 -11t-6.5 -13.5t-3 -11v-252q0 -12 -8 -22t-20 -10t-22 10t-10 22v324q0 12 10 20t22 8q6 0 12 -2.5t12 -5.5q9 3 21 5.5t27 2.5h36v0z" />
<glyph unicode="s" horiz-adv-x="287" d="M103 180q-29 0 -48.5 10.5t-32 26.5t-18 34t-5.5 33t5.5 32.5t18 32.5t32 25t48.5 10q1 0 9.5 -0.5t21.5 -5t28.5 -13.5t32.5 -25q9 -9 9 -20t-9 -20t-20 -9t-20 9q-11 9 -20.5 14t-16.5 7q-9 3 -15 3q-14 0 -21.5 -4.5t-12 -11t-5.5 -13.5t-1 -11q0 -5 1 -12t5.5 -14.5 t12 -12.5t21.5 -5q37 0 63 -13.5t42.5 -33.5t23.5 -44t7 -45q0 -15 -5 -33t-16.5 -34t-31 -26.5t-47.5 -10.5q-15 0 -32 1.5t-34.5 10t-35.5 27t-34 53.5q-6 9 -1 21.5t17 18.5q9 6 21.5 1t18.5 -17q10 -21 19.5 -32.5t19 -16.5t19.5 -6t22 -1q13 0 21 5t12.5 12.5t5.5 14.5 t1 12q0 3 -1 16t-7 28q-9 18 -26.5 25t-41.5 7z" />
<glyph unicode="t" horiz-adv-x="252" d="M140 0q-29 0 -48.5 10.5t-32 26.5t-18 34t-5.5 33v220h-4q-12 0 -22 10t-10 22t10 20t22 8h4v80q0 12 10 20t22 8t20 -8t8 -20v-80h44q12 0 20 -8t8 -20t-8 -22t-20 -10h-44v-220q1 -5 3 -12t6.5 -14.5t12.5 -12.5t22 -5h36q12 0 20 -8t8 -20t-8 -22t-20 -10h-36z" />
<glyph unicode="u" d="M140 0q-21 0 -45.5 15.5t-45.5 41t-35 56.5t-14 63v180q0 12 10 20t22 8t20 -8t8 -20v-180q0 -21 10 -41t23.5 -36.5t27 -27t19.5 -11.5q13 0 21 5t12.5 12.5t5.5 14.5t1 12v252q0 12 10 20t22 8t20 -8t8 -20v-324q0 -12 -8 -22t-20 -10q-6 0 -12 4.5t-12 7.5 q-9 -3 -21 -7.5t-27 -4.5z" />
<glyph unicode="v" d="M12 84q-12 6 -12 20v252q0 12 10 20t22 8t20 -8t8 -20v-240l52 -52q9 4 20.5 15t22 26t18 33t7.5 38v180q0 12 10 20t22 8t20 -8t8 -20v-180q0 -32 -13.5 -63t-33.5 -56.5t-44 -41t-45 -15.5q-14 0 -20 12z" />
<glyph unicode="w" horiz-adv-x="512" d="M392 384q12 0 20 -8t8 -20v-180q0 -32 -13.5 -63t-33.5 -56.5t-44 -41t-45 -15.5q-14 0 -20 12l-60 56q-21 -27 -48.5 -47.5t-51.5 -20.5q-14 0 -20 12l-72 72q-12 6 -12 20v252q0 12 10 20t22 8t20 -8t8 -20v-240l52 -52q9 4 20.5 15t22 26t18 33t7.5 38v180q0 12 10 20 t22 8t20 -8t8 -20v-180v-60l52 -52q9 4 20.5 15t22 26t18 33t7.5 38v180q0 12 10 20t22 8z" />
<glyph unicode="x" horiz-adv-x="359" d="M15 8q-12 6 -14.5 18.5t6.5 21.5l96 144l-96 148q-9 9 -6.5 21.5t14.5 18.5q9 9 21.5 6.5t18.5 -14.5l84 -124l84 124q6 12 18.5 14.5t21.5 -6.5q12 -6 14.5 -18.5t-6.5 -21.5l-96 -148l96 -144q9 -9 6.5 -21.5t-14.5 -18.5q-3 -3 -8 -5.5t-8 -2.5q-6 0 -13.5 5t-10.5 11 l-84 124l-84 -124q-3 -6 -10.5 -11t-13.5 -5q-8 0 -16 8z" />
<glyph unicode="y" d="M240 -76q0 -18 -8 -42t-27.5 -46t-52.5 -37t-84 -15q-12 0 -22 10t-10 22t10 20t22 8q42 0 64.5 12t33 26.5t12.5 27t2 14.5v84q-6 -3 -17 -5.5t-23 -2.5q-21 0 -45.5 15.5t-45.5 41t-35 56.5t-14 63v180q0 12 10 20t22 8t20 -8t8 -20v-180q0 -21 10 -41t23.5 -36.5 t27 -27t19.5 -11.5q13 0 21 5t12.5 12.5t5.5 14.5t1 12v252q0 12 10 20t22 8t20 -8t8 -20v-432v0z" />
<glyph unicode="z" horiz-adv-x="367" d="M32 324q-12 0 -22 10t-10 22t10 20t22 8h216q16 0 28 -12q3 -9 2.5 -17.5t-6.5 -14.5l-184 -280h160q12 0 20 -8t8 -20t-8 -22t-20 -10h-216q-9 0 -15.5 5t-12.5 11q-3 9 -2.5 17.5t6.5 14.5l184 276h-160v0z" />
<glyph unicode="{" horiz-adv-x="217" d="M33 288q-12 0 -22 10t-10 22t10 20t22 8q1 0 3 2q0 1 1 2v4q-24 200 24 260q15 15 28 17.5t16 2.5h36q12 0 20 -8t8 -20t-8 -22t-20 -10h-32q-2 -2 -7 -11t-9.5 -32.5t-4.5 -65t9 -107.5v-4q0 -9 -1 -18t-7 -18q6 -9 7 -18t1 -18v-4q-8 -62 -8 -102t3.5 -64.5t8.5 -35.5 t8 -14v-4h32q12 0 20 -8t8 -20t-8 -22t-20 -10h-36q-3 0 -16 4.5t-28 19.5q-48 60 -24 260v4h-4v0z" />
<glyph unicode="|" horiz-adv-x="144" d="M32 0q-12 0 -22 10t-10 22v576q0 12 10 20t22 8t20 -8t8 -20v-576q0 -12 -8 -22t-20 -10z" />
<glyph unicode="}" horiz-adv-x="217" d="M137 288h-4v-4q24 -200 -24 -260q-15 -15 -28 -19.5t-16 -4.5h-36q-12 0 -20 10t-8 22t8 20t20 8h32v4q3 3 8 14t8.5 35.5t3 64.5t-7.5 102v4q0 9 1 18t7 18q-6 9 -7 18t-1 18v4q9 66 9 107.5t-4.5 65t-10 32.5t-6.5 11h-32q-12 0 -20 10t-8 22t8 20t20 8h36q3 0 16 -2.5 t28 -17.5q48 -60 24 -260v-4q-1 -1 0 -2q0 -2 4 -2q12 0 22 -8t10 -20t-10 -22t-22 -10z" />
<glyph unicode="~" horiz-adv-x="432" d="M320 352q12 0 20 -10t8 -22q0 -15 -5 -33t-16.5 -34t-31 -26.5t-47.5 -10.5q-36 0 -58 16.5t-34 31.5q-15 12 -24.5 18t-27.5 6q-15 0 -24 -5t-13.5 -12t-5.5 -13.5t-1 -9.5q0 -12 -8 -22t-20 -10t-22 10t-10 22q0 15 5.5 32.5t18 32.5t32 25t48.5 10q36 0 58 -14.5 t34 -29.5q15 -12 24.5 -20t27.5 -8q13 0 21 5t12.5 12.5t5.5 14.5t1 12q0 12 10 22t22 10z" />
<glyph unicode="&#xa1;" horiz-adv-x="144" d="M32 456q12 0 20 -10t8 -22v-396q0 -12 -8 -20t-20 -8t-22 8t-10 20v396q0 12 10 22t22 10zM0 604q0 12 10 22t22 10t20 -10t8 -22v-72q0 -12 -8 -20t-20 -8t-22 8t-10 20v72z" />
<glyph unicode="&#xa2;" d="M168 -40q0 -12 -8 -22t-20 -10t-22 10t-10 22v52q-27 9 -49.5 26.5t-34.5 41.5q-18 33 -21 67.5t-3 64.5q0 27 10 53t26 48.5t35 40t37 26.5v48q0 12 10 20t22 8t20 -8t8 -20v-44q21 -6 35 -17.5t22 -25t11.5 -29t3.5 -28.5q0 -12 -8 -22t-20 -10t-20 10t-8 22 q-2 4 -4 11t-6.5 13.5t-12.5 11t-21 4.5q-6 0 -19.5 -9.5t-27 -25.5t-23.5 -36t-10 -41q0 -32 2.5 -58.5t13 -46t31.5 -31t57 -12.5l28 24q9 9 20 9t20 -9q20 -20 0 -40l-36 -36q-6 -12 -20 -12q-3 0 -4 2t-4 2v-44v0z" />
<glyph unicode="&#xa3;" horiz-adv-x="540" d="M456 172q0 -33 -8 -58t-21.5 -43.5t-30 -31t-32.5 -19.5q-15 -8 -30 -12t-27 -6q-14 -3 -27 -2h-252q-12 0 -20 8t-8 20t8 22t20 10q15 0 23.5 5t13 12t6 13.5t1.5 9.5v188h-8q-12 0 -20 8t-8 20t8 22t20 10h8v148q0 28 10 48t25 32.5t32.5 18t32.5 5.5q18 0 31 -7.5 t21 -18t12 -22t4 -20.5q-2 -8 -6 -14q-4 -5 -9.5 -9.5t-16.5 -4.5q-12 0 -18 4.5t-8 9.5q-3 6 -2 14l-4 4q-1 1 -1 2q-2 2 -3 2q-5 0 -11.5 -2t-13 -6.5t-11 -13.5t-4.5 -22v-148h76q12 0 22 -10t10 -22t-10 -20t-22 -8h-76v-188q0 -9 -3 -20t-9 -20h160q4 0 23 2.5t39.5 13 t37 33t16.5 63.5q-2 4 -4 11.5t-6.5 15t-12.5 12.5t-21 5h-36q-12 0 -20 8t-8 20t8 22t20 10h36q28 0 48 -10.5t32.5 -26.5t18 -34t5.5 -33z" />
<glyph unicode="&#xa4;" horiz-adv-x="427" d="M335 412q9 -9 9 -20t-9 -20l-52 -52q12 -21 18 -43t6 -49q0 -46 -24 -88l52 -52q20 -20 0 -40q-6 -12 -20 -12t-20 12l-52 48q-15 -9 -33 -16.5t-39 -7.5t-39 7.5t-33 16.5l-52 -48q-6 -12 -20 -12t-20 12q-9 9 -9 20t9 20l52 52q-12 21 -20 42.5t-8 45.5q0 27 8 49 t20 43l-52 52q-9 9 -9 20t9 20q20 20 40 0l52 -48q15 9 33 14.5t39 5.5t39 -5.5t33 -14.5l52 48q9 9 20 9t20 -9zM127 152q20 -20 44 -20q12 0 23.5 5.5t20.5 14.5q0 8 8 8q0 3 2.5 4t5.5 4q9 12 12.5 27t3.5 33q0 21 -3.5 36.5t-12.5 27.5q-3 3 -5.5 4t-2.5 4q-8 0 -8 8 q-9 9 -20.5 12.5t-23.5 3.5t-23.5 -3.5t-20.5 -12.5q0 -8 -8 -8q0 -3 -2.5 -4t-5.5 -4q-9 -12 -14.5 -27.5t-5.5 -36.5q0 -18 5.5 -33t14.5 -27q3 -3 5.5 -4t2.5 -4q8 0 8 -8z" />
<glyph unicode="&#xa5;" horiz-adv-x="432" d="M144 204v84h-112q-12 0 -22 10t-10 22t10 20t22 8h92l-120 208q-6 12 -1.5 23.5t13.5 20.5q12 6 23.5 1.5t20.5 -13.5l116 -208l116 208q9 9 20.5 13.5t23.5 -1.5q9 -9 13.5 -20.5t-1.5 -23.5l-120 -208h92q12 0 20 -8t8 -20t-8 -22t-20 -10h-116v-84h116q12 0 20 -8 t8 -20t-8 -22t-20 -10h-116v-112q0 -12 -8 -22t-20 -10t-22 10t-10 22v112h-112q-12 0 -22 10t-10 22t10 20t22 8h112z" />
<glyph unicode="&#xa6;" horiz-adv-x="157" d="M33 360q-12 0 -22 10t-10 22v216q0 12 10 20t22 8t20 -8t8 -20v-216q0 -12 -8 -22t-20 -10zM1 284q0 12 10 20t22 8t20 -8t8 -20v-252q0 -12 -8 -22t-20 -10t-22 10t-10 22v252z" />
<glyph unicode="&#xa7;" horiz-adv-x="431" d="M347 320q-2 -26 -10 -51q-8 -22 -22.5 -45.5t-43.5 -43.5q21 -12 34 -29t22 -35q8 -15 11.5 -30t5.5 -27q2 -14 3 -27q-3 -49 -26 -88q-10 -17 -25 -32.5t-37 -28t-51.5 -20t-68.5 -7.5q-2 0 -17 2t-36 11t-44 27.5t-39 51.5q-6 9 -1 21.5t17 18.5q9 6 21.5 1t18.5 -17 q9 -20 22.5 -30.5t26.5 -15.5t22 -7t9 -3q54 0 84 16.5t44.5 37t18 39t5.5 23.5q-2 4 -5 22.5t-14 38t-34 35.5t-63 16h-36q-41 0 -67.5 19t-43 46.5t-23 57.5t-6.5 53q0 13 4 27q2 12 7 27t13 30q6 15 15 27.5t21 24.5q-30 21 -45 55t-15 61q0 13 4 27q2 12 7 27t13 30 q7 15 19.5 30.5t31 28.5t43.5 21t58 8q1 0 16.5 -1.5t36.5 -9.5t43.5 -26t39.5 -51q6 -9 1 -21.5t-17 -18.5q-9 -6 -21.5 -1t-18.5 17q-11 20 -25 30t-26 15q-15 5 -29 7q-71 0 -100 -52q-5 -12 -8 -23t-5 -19q-3 -10 -3 -18q3 0 4.5 -13t7.5 -31q18 -36 68 -36h36 q33 0 58 -8t43.5 -21t30.5 -28.5t20 -30.5t11.5 -30t5.5 -27q2 -14 3 -27zM139 204q54 0 84 16.5t44.5 37t18 39t5.5 23.5q-2 4 -5 22.5t-14 38t-34 35.5t-63 16q-71 0 -100 -52q-5 -12 -8 -23t-5 -19q-3 -10 -3 -18q1 -2 3 -20t9.5 -39.5t23 -39t44.5 -17.5z" />
<glyph unicode="&#xa8;" horiz-adv-x="288" d="M32 564q12 0 20 -8t8 -20v-72q0 -12 -8 -22t-20 -10t-22 10t-10 22v72q0 12 10 20t22 8zM176 432q-12 0 -22 10t-10 22v72q0 12 10 20t22 8t20 -8t8 -20v-72q0 -12 -8 -22t-20 -10z" />
<glyph unicode="&#xa9;" horiz-adv-x="541" d="M229 708q48 0 89.5 -17.5t72.5 -48.5t48.5 -72.5t17.5 -89.5q0 -47 -17.5 -88t-48.5 -72.5t-72.5 -49.5t-89.5 -18q-47 0 -88 18t-72.5 49.5t-49.5 72.5t-18 88q0 48 18 89.5t49.5 72.5t72.5 48.5t88 17.5zM229 312q36 0 66.5 13.5t53 36t35.5 53t13 65.5q0 36 -13 66.5 t-35.5 53t-53 35.5t-66.5 13q-35 0 -65.5 -13t-53 -35.5t-36 -53t-13.5 -66.5q0 -35 13.5 -65.5t36 -53t53 -36t65.5 -13.5zM266 415q9 9 20 9t20 -9t9 -22t-9 -22l-24 -24q-3 -3 -8.5 -5.5t-11.5 -2.5q-86 0 -116 60q-12 24 -14 49.5t-2 46.5q0 24 10.5 47t27 41t35 29 t35.5 11q21 0 35.5 -8t23.5 -20t13 -26t4 -26q-1 -8 -4 -14q-3 -5 -8 -9.5t-16 -4.5q-12 0 -18 5t-8 11q-3 7 -2 16q0 12 -8.5 14t-11.5 2q-5 -2 -13 -8t-15.5 -15.5t-13.5 -21t-6 -23.5q0 -48 10.5 -70.5t49.5 -25.5z" />
<glyph unicode="&#xaa;" horiz-adv-x="243" d="M75 292q-11 0 -24 4.5t-24.5 14.5t-19.5 25t-8 36q0 24 11 41.5t27.5 29t37 17.5t40.5 8v20q0 12 -6.5 14t-9.5 2q-6 0 -13.5 -4.5t-10.5 -7.5q-9 -9 -22 -9t-22 9t-9 20t9 20q1 3 7.5 8.5t16 10.5t21 9t23.5 4q21 0 35.5 -7.5t23.5 -18.5t13 -24.5t4 -25.5v-140v-24 q0 -12 -8 -22t-20 -10q-9 0 -15 5t-9 11l-36 -12q-3 0 -6 -2t-6 -2zM115 408q-18 -3 -37 -10.5t-19 -25.5q0 -9 3 -13t9 -7l44 16v40z" />
<glyph unicode="&#xab;" horiz-adv-x="568" d="M271 372q9 -9 6.5 -21.5t-14.5 -18.5l-176 -120l176 -120q12 -6 14.5 -18.5t-6.5 -21.5q-3 -6 -10.5 -11t-13.5 -5q-8 0 -16 8l-216 144q-6 3 -11 9t-5 15t5 15t11 9l216 144q9 9 21.5 6.5t18.5 -14.5zM501 372q9 -9 6.5 -21.5t-14.5 -18.5l-176 -120l176 -120 q12 -6 14.5 -18.5t-6.5 -21.5q-3 -6 -10.5 -11t-13.5 -5q-8 0 -16 8l-216 144q-6 3 -11 9t-5 15t5 15t11 9l216 144q9 9 21.5 6.5t18.5 -14.5z" />
<glyph unicode="&#xac;" horiz-adv-x="432" d="M320 240q12 0 20 -8t8 -20v-72q0 -12 -8 -22t-20 -10t-22 10t-10 22v40h-256q-12 0 -22 10t-10 22t10 20t22 8h288v0z" />
<glyph unicode="&#xae;" horiz-adv-x="541" d="M229 708q48 0 89.5 -17.5t72.5 -48.5t48.5 -72.5t17.5 -89.5q0 -47 -17.5 -88t-48.5 -72.5t-72.5 -49.5t-89.5 -18q-47 0 -88 18t-72.5 49.5t-49.5 72.5t-18 88q0 48 18 89.5t49.5 72.5t72.5 48.5t88 17.5zM229 312q36 0 66.5 13.5t53 36t35.5 53t13 65.5q0 36 -13 66.5 t-35.5 53t-53 35.5t-66.5 13q-35 0 -65.5 -13t-53 -35.5t-36 -53t-13.5 -66.5q0 -35 13.5 -65.5t36 -53t53 -36t65.5 -13.5zM293 504q24 -24 24 -64v-68q0 -12 -8 -20t-20 -8t-22 8t-10 20v68q0 12 -2.5 16.5t-5.5 7.5h-16h-12v-92q0 -12 -8 -22t-20 -10t-22 10t-10 22v220 q0 9 8 17t20 11q3 0 13 1t23.5 -0.5t28.5 -6t27 -14.5q24 -18 24 -52q0 -15 -3 -25t-9 -19zM221 524q18 3 21 12t3 12v8q-3 3 -9 3.5t-15 0.5v-36z" />
<glyph unicode="&#xb0;" horiz-adv-x="361" d="M141 636q28 0 53 -10.5t43.5 -29t29 -43.5t10.5 -53q0 -29 -10.5 -54t-29 -44.5t-43.5 -30.5t-53 -11q-29 0 -54 11t-44.5 30.5t-30.5 44.5t-11 54q0 28 11 53t30.5 43.5t44.5 29t54 10.5zM141 420q33 0 54.5 23.5t21.5 56.5t-21.5 54.5t-54.5 21.5t-56.5 -21.5 t-23.5 -54.5t23.5 -56.5t56.5 -23.5z" />
<glyph unicode="&#xb1;" horiz-adv-x="431" d="M143 240h-112q-12 0 -22 10t-10 22t10 20t22 8h112v116q0 12 10 20t22 8t20 -8t8 -20v-116h116q12 0 20 -8t8 -20t-8 -22t-20 -10h-116v-112q0 -12 -8 -22t-20 -10t-22 10t-10 22v112zM32 0q-12 0 -22 10t-10 22t10 20t22 8h288q12 0 20 -8t8 -20t-8 -22t-20 -10h-288z " />
<glyph unicode="&#xb2;" horiz-adv-x="216" d="M154 488q0 -20 -5.5 -35t-13.5 -28t-18 -24t-19 -21q-9 -9 -15.5 -16t-12.5 -16h56q12 0 20 -10t8 -22t-8 -20t-20 -8h-96q-12 0 -20 8t-8 20q0 39 17.5 64.5t38.5 43.5q15 18 25.5 32t10.5 32q0 12 -6.5 14t-9.5 2t-9.5 -2t-6.5 -14q0 -8 -4 -14q-3 -5 -9.5 -9.5 t-18.5 -4.5q-11 0 -17 4.5t-8 9.5q-4 6 -3 14q0 12 4 25.5t13 24.5t23.5 18.5t35.5 7.5t35.5 -7.5t23.5 -18.5t13 -24.5t4 -25.5z" />
<glyph unicode="&#xb3;" horiz-adv-x="224" d="M2 348q-1 8 3 14q2 5 8 9.5t17 4.5t16.5 -4.5t9.5 -9.5q4 -6 6 -14q4 0 10 0.5t10.5 5t8 14.5t3.5 28q0 21 -11.5 26.5t-20.5 5.5q-19 0 -24 16q-6 6 -6 14t6 14l16 32h-8q-12 0 -20 10t-8 22t8 20t20 8h64q6 0 13.5 -3.5t10.5 -12.5q6 -6 6 -14t-6 -14l-24 -44 q18 -9 31 -29.5t13 -50.5q0 -51 -25 -79.5t-67 -28.5q-30 0 -45 19.5t-15 40.5z" />
<glyph unicode="&#xb4;" horiz-adv-x="212" d="M48 444q-6 -12 -20 -12t-20 12q-9 9 -9 20t9 20l72 72q20 20 40 0q9 -9 9 -20t-9 -20l-72 -72v0z" />
<glyph unicode="&#xb5;" horiz-adv-x="323" d="M211 384q12 0 20 -8t8 -20v-324q0 -12 -8 -22t-20 -10q-6 0 -12 4.5t-12 7.5q-9 -3 -21 -7.5t-27 -4.5q-18 0 -38.5 13t-41.5 31v-192q0 -12 -8 -22t-20 -10t-22 10t-10 22v504q0 12 10 20t22 8t20 -8t8 -20v-180q0 -21 10 -41t23.5 -36.5t27 -27t19.5 -11.5q15 0 23 5.5 t12 13t4.5 15t0.5 10.5v252q0 12 10 20t22 8z" />
<glyph unicode="&#xb6;" horiz-adv-x="612" d="M572 636q12 0 20 -8t8 -20t-8 -22t-20 -10h-152v-544q0 -12 -8 -22t-20 -10t-22 10t-10 22v544h-48v-544q0 -12 -8 -22t-20 -10t-22 10t-10 22v256h-40q-2 0 -11 1t-22.5 3.5t-31 7t-35.5 12.5q-54 21 -83 59.5t-29 92.5t29 92.5t83 59.5q18 7 35.5 11.5t31 6t22.5 2 t11 0.5h72h288zM252 348v228h-40q-3 0 -27 -2t-52 -12.5t-50.5 -33t-22.5 -64.5q0 -70 72 -100q15 -5 29.5 -8t25.5 -5q13 -3 25 -3h40z" />
<glyph unicode="&#xb7;" horiz-adv-x="145" d="M32 280q-12 0 -22 10t-10 22v72q0 12 10 20t22 8t20 -8t8 -20v-72q0 -12 -8 -22t-20 -10z" />
<glyph unicode="&#xb8;" horiz-adv-x="290" d="M134 -12q30 -6 51 -20t21 -44q0 -18 -9 -31t-23 -21t-32 -12t-36 -4t-36.5 4t-33.5 12t-24.5 21t-9.5 31q0 12 10 20t22 8t20 -7.5t8 -16.5q6 -3 19 -7.5t25 -4.5q9 3 19.5 4t16.5 4q-6 3 -16.5 3.5t-19.5 0.5q-12 0 -22 10t-10 22v36q0 12 10 20t22 8t20 -8t8 -20v-8v0z " />
<glyph unicode="&#xb9;" horiz-adv-x="177" d="M89 320q0 -12 -8 -22t-20 -10t-22 10t-10 22v156q-6 0 -11.5 1t-8.5 7q-9 9 -9 22t9 22l28 28q20 13 36 8q6 -3 11 -11t5 -17v-216v0z" />
<glyph unicode="&#xba;" horiz-adv-x="269" d="M77 564q16 0 34 -10.5t32.5 -27.5t24 -39.5t9.5 -46.5v-68q0 -12 -4 -26t-13 -26t-23.5 -20t-35.5 -8q-15 0 -32.5 11t-32.5 28.5t-25 39.5t-10 45v72q0 12 4 25.5t13 24.5t23.5 18.5t35.5 7.5zM117 440q0 12 -4.5 23.5t-11 20.5t-13.5 14.5t-11 5.5q-16 0 -16 -16v-72 q0 -11 4.5 -21.5t11 -19.5t13 -15.5t11.5 -7.5q6 0 11 4t5 16v68z" />
<glyph unicode="&#xbb;" horiz-adv-x="568" d="M241 372q6 12 18.5 14.5t21.5 -6.5l216 -144q6 -3 11 -9t5 -15t-5 -15t-11 -9l-216 -144q-3 -3 -8 -5.5t-8 -2.5q-6 0 -13.5 5t-10.5 11q-9 9 -6.5 21.5t14.5 18.5l176 120l-176 120q-12 6 -14.5 18.5t6.5 21.5zM11 372q6 12 18.5 14.5t21.5 -6.5l216 -144q6 -3 11 -9 t5 -15t-5 -15t-11 -9l-216 -144q-3 -3 -8 -5.5t-8 -2.5q-6 0 -13.5 5t-10.5 11q-9 9 -6.5 21.5t14.5 18.5l176 120l-176 120q-12 6 -14.5 18.5t6.5 21.5z" />
<glyph unicode="&#xbc;" horiz-adv-x="519" d="M415 140q26 0 32 -32q0 -12 -8.5 -20t-23.5 -8v-48q0 -12 -8.5 -22t-23.5 -10q-12 0 -20 10t-8 22v44h-48v-4q-9 0 -15 5t-9 11q-6 6 -6.5 14t2.5 14l72 144q6 9 14.5 14t17.5 2q15 0 23.5 -8t8.5 -20v-108zM89 320q0 -12 -8 -22t-20 -10t-22 10t-10 22v156q-6 0 -11.5 1 t-8.5 7q-9 9 -9 22t9 22l28 28q20 13 36 8q6 -3 11 -11t5 -17v-216zM177 28q0 -12 -8 -20t-20 -8l-4 4q-12 0 -19.5 10t-4.5 22l108 576q0 12 10 19.5t22 4.5q12 0 19.5 -10t4.5 -22z" />
<glyph unicode="&#xbd;" horiz-adv-x="529" d="M89 320q0 -12 -8 -22t-20 -10t-22 10t-10 22v156q-6 0 -11.5 1t-8.5 7q-9 9 -9 22t9 22l28 28q20 13 36 8q6 -3 11 -11t5 -17v-216zM424 200q0 -20 -5.5 -35t-13.5 -28t-18 -24t-19 -21q-9 -9 -15.5 -16t-12.5 -16h56q12 0 20 -10t8 -22t-8 -20t-20 -8h-96q-12 0 -20 8 t-8 20q0 39 17.5 64.5t38.5 43.5q15 18 25.5 32t10.5 32q0 12 -6.5 14t-9.5 2t-9.5 -2t-6.5 -14q0 -8 -4 -14q-3 -5 -9.5 -9.5t-18.5 -4.5q-11 0 -17 4.5t-8 9.5q-4 6 -3 14q0 12 4 25.5t13 24.5t23.5 18.5t35.5 7.5t35.5 -7.5t23.5 -18.5t13 -24.5t4 -25.5zM161 28 q0 -12 -8 -20t-20 -8l-4 4q-12 0 -19.5 10t-4.5 22l108 576q0 12 10 19.5t22 4.5q12 0 19.5 -10t4.5 -22z" />
<glyph unicode="&#xbe;" horiz-adv-x="552" d="M428 138q26 0 32 -32q0 -12 -8.5 -20t-23.5 -8v-48q0 -12 -8.5 -22t-23.5 -10q-12 0 -20 10t-8 22v44h-48v-4q-9 0 -15 5t-9 11q-6 6 -6.5 14t2.5 14l72 144q6 9 14.5 14t17.5 2q15 0 23.5 -8t8.5 -20v-108zM2 348q-1 8 3 14q2 5 8 9.5t17 4.5t16.5 -4.5t9.5 -9.5 q4 -6 6 -14q4 0 10 0.5t10.5 5t8 14.5t3.5 28q0 21 -11.5 26.5t-20.5 5.5q-19 0 -24 16q-6 6 -6 14t6 14l16 32h-8q-12 0 -20 10t-8 22t8 20t20 8h64q6 0 13.5 -3.5t10.5 -12.5q6 -6 6 -14t-6 -14l-24 -44q18 -9 31 -29.5t13 -50.5q0 -51 -25 -79.5t-67 -28.5 q-30 0 -45 19.5t-15 40.5zM211 26q0 -12 -8 -20t-20 -8l-4 4q-12 0 -19.5 10t-4.5 22l108 576q0 12 10 19.5t22 4.5q12 0 19.5 -10t4.5 -22z" />
<glyph unicode="&#xbf;" horiz-adv-x="396" d="M136 0q-38 0 -63.5 13.5t-42 33.5t-23.5 44t-7 45q0 1 1.5 22t9.5 49t26 56t51 45q25 12 37 30.5t16.5 36t3.5 30.5t-1 15q-3 12 4.5 22t19.5 10h4q12 0 20 -6t8 -18q3 -15 2 -38t-10 -48.5t-28 -49.5t-52 -40q-20 -9 -30.5 -28t-15.5 -39q-6 -23 -6 -49q0 -6 1 -13 q1 -6 2.5 -14t4.5 -17q9 -18 26.5 -25t41.5 -7q40 0 63 10.5t34 24t14 26t5 15.5q0 12 8 22t20 10t22 -10t10 -22q0 -18 -8.5 -41.5t-28.5 -44.5t-54 -35.5t-85 -14.5zM144 604q0 12 8 22t20 10t22 -10t10 -22v-72q0 -12 -10 -20t-22 -8t-20 8t-8 20v72z" />
<glyph unicode="&#xc0;" horiz-adv-x="501" d="M417 40q3 -12 -2.5 -22.5t-17.5 -13.5q-3 0 -4 -2t-4 -2q-9 0 -17 7.5t-11 16.5l-60 192h-184l-60 -192q-3 -12 -13.5 -17.5t-22.5 -2.5t-17.5 13.5t-2.5 22.5l180 576q3 9 11 14.5t17 5.5t17 -5.5t11 -14.5zM281 276l-72 232l-72 -232h144zM123 817q20 20 40 0l72 -72 q9 -9 9 -20t-9 -20q-6 -12 -20 -12t-20 12l-72 72q-9 9 -9 20t9 20z" />
<glyph unicode="&#xc1;" horiz-adv-x="501" d="M417 40q3 -12 -2.5 -22.5t-17.5 -13.5q-3 0 -4 -2t-4 -2q-9 0 -17 7.5t-11 16.5l-60 192h-184l-60 -192q-3 -12 -13.5 -17.5t-22.5 -2.5t-17.5 13.5t-2.5 22.5l180 576q3 9 11 14.5t17 5.5t17 -5.5t11 -14.5zM281 276l-72 232l-72 -232h144zM234 705q-6 -12 -20 -12 t-20 12q-9 9 -9 20t9 20l72 72q20 20 40 0q9 -9 9 -20t-9 -20l-72 -72v0z" />
<glyph unicode="&#xc2;" horiz-adv-x="501" d="M417 40q3 -12 -2.5 -22.5t-17.5 -13.5q-3 0 -4 -2t-4 -2q-9 0 -17 7.5t-11 16.5l-60 192h-184l-60 -192q-3 -12 -13.5 -17.5t-22.5 -2.5t-17.5 13.5t-2.5 22.5l180 576q3 9 11 14.5t17 5.5t17 -5.5t11 -14.5zM281 276l-72 232l-72 -232h144zM157 695q-9 -9 -20 -9t-20 9 t-9 20t9 20l72 72q20 20 40 0l72 -72q9 -9 9 -20t-9 -20q-6 -12 -20 -12t-20 12l-52 48l-52 -48v0z" />
<glyph unicode="&#xc3;" horiz-adv-x="501" d="M417 40q3 -12 -2.5 -22.5t-17.5 -13.5q-3 0 -4 -2t-4 -2q-9 0 -17 7.5t-11 16.5l-60 192h-184l-60 -192q-3 -12 -13.5 -17.5t-22.5 -2.5t-17.5 13.5t-2.5 22.5l180 576q3 9 11 14.5t17 5.5t17 -5.5t11 -14.5zM281 276l-72 232l-72 -232h144zM176 779q24 0 37 -9t19 -15 q12 -12 16 -12q1 0 3 2q0 1 1 2v4q0 12 10 20t22 8t20 -8t8 -20q0 -9 -3.5 -21t-11 -22.5t-19.5 -17.5t-30 -7q-24 0 -37 11t-19 17t-9.5 7t-6.5 1h-4l-4 -4q0 -12 -8 -22t-20 -10t-22 10t-10 22q0 9 4 20t12 21t21 16.5t31 6.5z" />
<glyph unicode="&#xc4;" horiz-adv-x="501" d="M417 40q3 -12 -2.5 -22.5t-17.5 -13.5q-3 0 -4 -2t-4 -2q-9 0 -17 7.5t-11 16.5l-60 192h-184l-60 -192q-3 -12 -13.5 -17.5t-22.5 -2.5t-17.5 13.5t-2.5 22.5l180 576q3 9 11 14.5t17 5.5t17 -5.5t11 -14.5zM281 276l-72 232l-72 -232h144zM140 820q12 0 20 -8t8 -20 v-72q0 -12 -8 -22t-20 -10t-22 10t-10 22v72q0 12 10 20t22 8zM284 688q-12 0 -22 10t-10 22v72q0 12 10 20t22 8t20 -8t8 -20v-72q0 -12 -8 -22t-20 -10z" />
<glyph unicode="&#xc5;" horiz-adv-x="501" d="M417 40q3 -12 -2.5 -22.5t-17.5 -13.5q-3 0 -4 -2t-4 -2q-9 0 -17 7.5t-11 16.5l-60 192h-184l-60 -192q-3 -12 -13.5 -17.5t-22.5 -2.5t-17.5 13.5t-2.5 22.5l180 576q3 9 11 14.5t17 5.5t17 -5.5t11 -14.5zM281 276l-72 232l-72 -232h144zM125 766q0 36 25.5 60 t58.5 24q36 0 60 -24t24 -60q0 -33 -24 -58.5t-60 -25.5q-17 0 -32 7t-26.5 18.5t-18.5 26.5t-7 32zM209 790q-9 0 -16.5 -6t-7.5 -18q0 -9 7.5 -16.5t16.5 -7.5q12 0 18 7.5t6 16.5q0 24 -24 24z" />
<glyph unicode="&#xc6;" horiz-adv-x="748" d="M412 576v-192h152q12 0 20 -8t8 -20t-8 -22t-20 -10h-152v-264h224q12 0 20 -8t8 -20t-8 -22t-20 -10h-252q-12 0 -22 10t-10 22v184h-176l-128 -200q-3 -6 -10.5 -11t-13.5 -5q-8 0 -16 8q-9 6 -13 17t5 23l360 576v4q1 0 3 2q0 1 1 2h4v4h4h12h252q12 0 20 -8t8 -20 t-8 -22t-20 -10h-224zM352 276v228l-140 -228h140z" />
<glyph unicode="&#xc7;" horiz-adv-x="432" d="M296 124q9 9 22 9t22 -9t9 -22t-9 -22l-64 -64q21 -6 36.5 -19t15.5 -37q0 -20 -9.5 -33t-24.5 -20.5t-33.5 -11t-36.5 -3.5q-17 0 -34.5 3.5t-32 11t-24 20.5t-9.5 33q0 12 8 20t20 8t22 -8t10 -20q6 -3 18.5 -5.5t21.5 -2.5q12 0 21.5 2.5t18.5 5.5q-9 0 -18.5 2 t-21.5 2t-20 8.5t-8 23.5v8q-119 18 -168 128q-21 51 -24.5 110t-3.5 110t20.5 101.5t52 91t67.5 66t68 25.5h4q36 0 61 -11t41.5 -27.5t24 -34.5t9.5 -31q-1 -8 -3 -13t-5.5 -9t-11.5 -6q-9 -2 -16.5 0.5t-12.5 7.5q-6 4 -11 12q0 3 -3 11.5t-11 17.5t-23 16t-39 7 q-17 0 -42.5 -18.5t-50 -50t-42 -72t-17.5 -83.5q0 -59 4.5 -110.5t21.5 -91t51.5 -63.5t94.5 -27l64 64v0z" />
<glyph unicode="&#xc8;" horiz-adv-x="396" d="M0 608q0 12 10 20t22 8h252q12 0 20 -8t8 -20t-8 -22t-20 -10h-224v-192h152q12 0 20 -8t8 -20t-8 -22t-20 -10h-152v-264h224q12 0 20 -8t8 -20t-8 -22t-20 -10h-252q-12 0 -22 10t-10 22v576v0zM72 812q20 20 40 0l72 -72q9 -9 9 -20t-9 -20q-6 -12 -20 -12t-20 12 l-72 72q-9 9 -9 20t9 20z" />
<glyph unicode="&#xc9;" horiz-adv-x="396" d="M0 608q0 12 10 20t22 8h252q12 0 20 -8t8 -20t-8 -22t-20 -10h-224v-192h152q12 0 20 -8t8 -20t-8 -22t-20 -10h-152v-264h224q12 0 20 -8t8 -20t-8 -22t-20 -10h-252q-12 0 -22 10t-10 22v576v0zM182 700q-6 -12 -20 -12t-20 12q-9 9 -9 20t9 20l72 72q20 20 40 0 q9 -9 9 -20t-9 -20l-72 -72v0z" />
<glyph unicode="&#xca;" horiz-adv-x="396" d="M0 608q0 12 10 20t22 8h252q12 0 20 -8t8 -20t-8 -22t-20 -10h-224v-192h152q12 0 20 -8t8 -20t-8 -22t-20 -10h-152v-264h224q12 0 20 -8t8 -20t-8 -22t-20 -10h-252q-12 0 -22 10t-10 22v576v0zM115 700q-9 -9 -20 -9t-20 9t-9 20t9 20l72 72q20 20 40 0l72 -72 q9 -9 9 -20t-9 -20q-6 -12 -20 -12t-20 12l-52 48l-52 -48v0z" />
<glyph unicode="&#xcb;" horiz-adv-x="396" d="M0 608q0 12 10 20t22 8h252q12 0 20 -8t8 -20t-8 -22t-20 -10h-224v-192h152q12 0 20 -8t8 -20t-8 -22t-20 -10h-152v-264h224q12 0 20 -8t8 -20t-8 -22t-20 -10h-252q-12 0 -22 10t-10 22v576v0zM97 820q12 0 20 -8t8 -20v-72q0 -12 -8 -22t-20 -10t-22 10t-10 22v72 q0 12 10 20t22 8zM241 688q-12 0 -22 10t-10 22v72q0 12 10 20t22 8t20 -8t8 -20v-72q0 -12 -8 -22t-20 -10z" />
<glyph unicode="&#xcc;" horiz-adv-x="145" d="M61 32q0 -12 -8 -22t-20 -10t-22 10t-10 22v576q0 12 10 20t22 8t20 -8t8 -20v-576v0zM-60 812q20 20 40 0l72 -72q9 -9 9 -20t-9 -20q-6 -12 -20 -12t-20 12l-72 72q-9 9 -9 20t9 20z" />
<glyph unicode="&#xcd;" horiz-adv-x="145" d="M61 32q0 -12 -8 -22t-20 -10t-22 10t-10 22v576q0 12 10 20t22 8t20 -8t8 -20v-576v0zM56 700q-6 -12 -20 -12t-20 12q-9 9 -9 20t9 20l72 72q20 20 40 0q9 -9 9 -20t-9 -20l-72 -72v0z" />
<glyph unicode="&#xce;" horiz-adv-x="145" d="M61 32q0 -12 -8 -22t-20 -10t-22 10t-10 22v576q0 12 10 20t22 8t20 -8t8 -20v-576v0zM-21 700q-9 -9 -20 -9t-20 9t-9 20t9 20l72 72q20 20 40 0l72 -72q9 -9 9 -20t-9 -20q-6 -12 -20 -12t-20 12l-52 48l-52 -48v0z" />
<glyph unicode="&#xcf;" horiz-adv-x="145" d="M61 32q0 -12 -8 -22t-20 -10t-22 10t-10 22v576q0 12 10 20t22 8t20 -8t8 -20v-576v0zM-38 820q12 0 20 -8t8 -20v-72q0 -12 -8 -22t-20 -10t-22 10t-10 22v72q0 12 10 20t22 8zM106 688q-12 0 -22 10t-10 22v72q0 12 10 20t22 8t20 -8t8 -20v-72q0 -12 -8 -22t-20 -10z " />
<glyph unicode="&#xd0;" horiz-adv-x="503" d="M207 636q33 0 72 -19.5t72 -52.5q13 -14 27.5 -33.5t25.5 -45.5t17.5 -59.5t5.5 -73.5v-12q0 -48 -5.5 -106t-26.5 -106q-55 -128 -212 -128h-80q-12 0 -22 10t-10 22v292h-40q-12 0 -22 10t-10 22t10 20t22 8h40v224q0 14 12 20q7 14 20 8h104zM367 352q1 33 -4 60 t-14 48.5t-20.5 37t-21.5 26.5q-27 27 -54.5 39.5t-45.5 12.5h-76v-192h116q12 0 20 -8t8 -20t-8 -22t-20 -10h-116v-264h52q61 0 97 22t55 59.5t24.5 88.5t7.5 110v12z" />
<glyph unicode="&#xd1;" horiz-adv-x="468" d="M356 0q-9 0 -15.5 5t-12.5 11l-268 476v-460q0 -12 -8 -22t-20 -10t-22 10t-10 22v576q0 9 7.5 17t16.5 11t19.5 0t16.5 -12l264 -476v460q0 12 10 20t22 8t20 -8t8 -20v-576q0 -9 -5.5 -17t-14.5 -11q-3 0 -4 -2t-4 -2zM170 784q24 0 37 -9t19 -15q12 -12 16 -12 q1 0 3 2q0 1 1 2v4q0 12 10 20t22 8t20 -8t8 -20q0 -9 -3.5 -21t-11 -22.5t-19.5 -17.5t-30 -7q-24 0 -37 11t-19 17t-9.5 7t-6.5 1h-4l-4 -4q0 -12 -8 -22t-20 -10t-22 10t-10 22q0 9 4 20t12 21t21 16.5t31 6.5z" />
<glyph unicode="&#xd2;" horiz-adv-x="468" d="M368 84q-8 -15 -19.5 -30t-28 -27t-39.5 -19.5t-53 -7.5q-21 0 -46 11.5t-50.5 31.5t-49 47t-42 59t-29.5 67.5t-11 71.5v192q0 3 4 26t16 50q15 30 47.5 55t92.5 25q31 0 70 -24t73.5 -64t57.5 -91t23 -105v-192q0 -3 -2 -26t-14 -50zM60 288q0 -44 19.5 -85t46.5 -72.5 t55.5 -51t46.5 -19.5q36 0 55.5 14.5t28.5 32.5t10.5 34t1.5 19v192q0 43 -19 83.5t-45 72t-54 50t-46 18.5q-36 0 -55.5 -14t-29 -31t-12 -32.5t-3.5 -18.5v-192zM108 812q20 20 40 0l72 -72q9 -9 9 -20t-9 -20q-6 -12 -20 -12t-20 12l-72 72q-9 9 -9 20t9 20z" />
<glyph unicode="&#xd3;" horiz-adv-x="468" d="M368 84q-8 -15 -19.5 -30t-28 -27t-39.5 -19.5t-53 -7.5q-21 0 -46 11.5t-50.5 31.5t-49 47t-42 59t-29.5 67.5t-11 71.5v192q0 3 4 26t16 50q15 30 47.5 55t92.5 25q31 0 70 -24t73.5 -64t57.5 -91t23 -105v-192q0 -3 -2 -26t-14 -50zM60 288q0 -44 19.5 -85t46.5 -72.5 t55.5 -51t46.5 -19.5q36 0 55.5 14.5t28.5 32.5t10.5 34t1.5 19v192q0 43 -19 83.5t-45 72t-54 50t-46 18.5q-36 0 -55.5 -14t-29 -31t-12 -32.5t-3.5 -18.5v-192zM188 700q-6 -12 -20 -12t-20 12q-9 9 -9 20t9 20l72 72q20 20 40 0q9 -9 9 -20t-9 -20l-72 -72v0z" />
<glyph unicode="&#xd4;" horiz-adv-x="468" d="M368 84q-8 -15 -19.5 -30t-28 -27t-39.5 -19.5t-53 -7.5q-21 0 -46 11.5t-50.5 31.5t-49 47t-42 59t-29.5 67.5t-11 71.5v192q0 3 4 26t16 50q15 30 47.5 55t92.5 25q31 0 70 -24t73.5 -64t57.5 -91t23 -105v-192q0 -3 -2 -26t-14 -50zM60 288q0 -44 19.5 -85t46.5 -72.5 t55.5 -51t46.5 -19.5q36 0 55.5 14.5t28.5 32.5t10.5 34t1.5 19v192q0 43 -19 83.5t-45 72t-54 50t-46 18.5q-36 0 -55.5 -14t-29 -31t-12 -32.5t-3.5 -18.5v-192zM132 700q-9 -9 -20 -9t-20 9t-9 20t9 20l72 72q20 20 40 0l72 -72q9 -9 9 -20t-9 -20q-6 -12 -20 -12t-20 12 l-52 48l-52 -48v0z" />
<glyph unicode="&#xd5;" horiz-adv-x="468" d="M368 84q-8 -15 -19.5 -30t-28 -27t-39.5 -19.5t-53 -7.5q-21 0 -46 11.5t-50.5 31.5t-49 47t-42 59t-29.5 67.5t-11 71.5v192q0 3 4 26t16 50q15 30 47.5 55t92.5 25q31 0 70 -24t73.5 -64t57.5 -91t23 -105v-192q0 -3 -2 -26t-14 -50zM60 288q0 -44 19.5 -85t46.5 -72.5 t55.5 -51t46.5 -19.5q36 0 55.5 14.5t28.5 32.5t10.5 34t1.5 19v192q0 43 -19 83.5t-45 72t-54 50t-46 18.5q-36 0 -55.5 -14t-29 -31t-12 -32.5t-3.5 -18.5v-192zM160 784q24 0 37 -9t19 -15q12 -12 16 -12q1 0 3 2q0 1 1 2v4q0 12 10 20t22 8t20 -8t8 -20q0 -9 -3.5 -21 t-11 -22.5t-19.5 -17.5t-30 -7q-24 0 -37 11t-19 17t-9.5 7t-6.5 1h-4l-4 -4q0 -12 -8 -22t-20 -10t-22 10t-10 22q0 9 4 20t12 21t21 16.5t31 6.5z" />
<glyph unicode="&#xd6;" horiz-adv-x="468" d="M368 84q-8 -15 -19.5 -30t-28 -27t-39.5 -19.5t-53 -7.5q-21 0 -46 11.5t-50.5 31.5t-49 47t-42 59t-29.5 67.5t-11 71.5v192q0 3 4 26t16 50q15 30 47.5 55t92.5 25q31 0 70 -24t73.5 -64t57.5 -91t23 -105v-192q0 -3 -2 -26t-14 -50zM60 288q0 -44 19.5 -85t46.5 -72.5 t55.5 -51t46.5 -19.5q36 0 55.5 14.5t28.5 32.5t10.5 34t1.5 19v192q0 43 -19 83.5t-45 72t-54 50t-46 18.5q-36 0 -55.5 -14t-29 -31t-12 -32.5t-3.5 -18.5v-192zM124 820q12 0 20 -8t8 -20v-72q0 -12 -8 -22t-20 -10t-22 10t-10 22v72q0 12 10 20t22 8zM268 688 q-12 0 -22 10t-10 22v72q0 12 10 20t22 8t20 -8t8 -20v-72q0 -12 -8 -22t-20 -10z" />
<glyph unicode="&#xd7;" horiz-adv-x="358" d="M10 84q-9 9 -9 20t9 20l84 88l-84 88q-9 9 -9 20t9 20q20 20 40 0l88 -84l88 84q20 20 40 0q9 -9 9 -20t-9 -20l-84 -88l84 -88q20 -20 0 -40q-6 -12 -20 -12t-20 12l-88 84l-88 -84q-6 -12 -20 -12t-20 12z" />
<glyph unicode="&#xd8;" horiz-adv-x="468" d="M296 564q9 -3 12.5 -10.5t3.5 -13.5q33 -39 52.5 -88t19.5 -100v-192q0 -3 -2 -26t-14 -50q-8 -15 -19.5 -30t-28 -27t-39.5 -19.5t-53 -7.5t-64 21.5t-64 54.5h-8q-9 3 -12.5 10.5t-3.5 13.5q-33 39 -54.5 88t-21.5 100v192q0 3 4 26t16 50q15 30 47.5 55t92.5 25 q30 0 64 -19.5t64 -52.5h8zM60 288q0 -30 11 -61t29 -55l148 352q-24 24 -48.5 38t-39.5 14q-36 0 -55.5 -14t-29 -31t-12 -32.5t-3.5 -18.5v-192zM324 352q0 30 -9 61t-27 55l-148 -352q24 -24 48.5 -40t39.5 -16q36 0 55.5 14.5t28.5 32.5t10.5 34t1.5 19v192z" />
<glyph unicode="&#xd9;" horiz-adv-x="471" d="M355 636q12 0 20 -8t8 -20v-448q0 -3 -2 -26t-14 -50q-8 -15 -19.5 -30t-28 -27t-39.5 -19.5t-53 -7.5q-20 0 -39.5 8t-39 21.5t-37 29.5t-32.5 33q-36 45 -57.5 96.5t-21.5 99.5q6 68 13 130q3 26 6 53.5t6.5 53.5t7 48.5t6.5 38.5q0 12 10 19.5t22 4.5q12 0 19.5 -10 t4.5 -22l-32 -316q0 -44 19 -85t45 -72.5t54 -51t46 -19.5q36 0 55.5 14.5t28.5 32.5t10.5 34t1.5 19v448q0 12 10 20t22 8zM129 812q20 20 40 0l72 -72q9 -9 9 -20t-9 -20q-6 -12 -20 -12t-20 12l-72 72q-9 9 -9 20t9 20z" />
<glyph unicode="&#xda;" horiz-adv-x="471" d="M355 636q12 0 20 -8t8 -20v-448q0 -3 -2 -26t-14 -50q-8 -15 -19.5 -30t-28 -27t-39.5 -19.5t-53 -7.5q-20 0 -39.5 8t-39 21.5t-37 29.5t-32.5 33q-36 45 -57.5 96.5t-21.5 99.5q6 68 13 130q3 26 6 53.5t6.5 53.5t7 48.5t6.5 38.5q0 12 10 19.5t22 4.5q12 0 19.5 -10 t4.5 -22l-32 -316q0 -44 19 -85t45 -72.5t54 -51t46 -19.5q36 0 55.5 14.5t28.5 32.5t10.5 34t1.5 19v448q0 12 10 20t22 8zM239 700q-6 -12 -20 -12t-20 12q-9 9 -9 20t9 20l72 72q20 20 40 0q9 -9 9 -20t-9 -20l-72 -72v0z" />
<glyph unicode="&#xdb;" horiz-adv-x="471" d="M355 636q12 0 20 -8t8 -20v-448q0 -3 -2 -26t-14 -50q-8 -15 -19.5 -30t-28 -27t-39.5 -19.5t-53 -7.5q-20 0 -39.5 8t-39 21.5t-37 29.5t-32.5 33q-36 45 -57.5 96.5t-21.5 99.5q6 68 13 130q3 26 6 53.5t6.5 53.5t7 48.5t6.5 38.5q0 12 10 19.5t22 4.5q12 0 19.5 -10 t4.5 -22l-32 -316q0 -44 19 -85t45 -72.5t54 -51t46 -19.5q36 0 55.5 14.5t28.5 32.5t10.5 34t1.5 19v448q0 12 10 20t22 8zM173 700q-9 -9 -20 -9t-20 9t-9 20t9 20l72 72q20 20 40 0l72 -72q9 -9 9 -20t-9 -20q-6 -12 -20 -12t-20 12l-52 48l-52 -48v0z" />
<glyph unicode="&#xdc;" horiz-adv-x="471" d="M355 636q12 0 20 -8t8 -20v-448q0 -3 -2 -26t-14 -50q-8 -15 -19.5 -30t-28 -27t-39.5 -19.5t-53 -7.5q-20 0 -39.5 8t-39 21.5t-37 29.5t-32.5 33q-36 45 -57.5 96.5t-21.5 99.5q6 68 13 130q3 26 6 53.5t6.5 53.5t7 48.5t6.5 38.5q0 12 10 19.5t22 4.5q12 0 19.5 -10 t4.5 -22l-32 -316q0 -44 19 -85t45 -72.5t54 -51t46 -19.5q36 0 55.5 14.5t28.5 32.5t10.5 34t1.5 19v448q0 12 10 20t22 8zM145 820q12 0 20 -8t8 -20v-72q0 -12 -8 -22t-20 -10t-22 10t-10 22v72q0 12 10 20t22 8zM289 688q-12 0 -22 10t-10 22v72q0 12 10 20t22 8t20 -8 t8 -20v-72q0 -12 -8 -22t-20 -10z" />
<glyph unicode="&#xdd;" horiz-adv-x="396" d="M332 636q12 -6 17 -18.5t-1 -21.5l-144 -284v-280q0 -12 -8 -22t-20 -10t-22 10t-10 22v280l-140 284q-6 9 -1 21.5t17 18.5q9 6 21.5 1t18.5 -17l116 -232l116 232q6 12 18.5 17t21.5 -1zM192 700q-6 -12 -20 -12t-20 12q-9 9 -9 20t9 20l72 72q20 20 40 0q9 -9 9 -20 t-9 -20l-72 -72v0z" />
<glyph unicode="&#xde;" horiz-adv-x="396" d="M204 508q108 -42 108 -152v-72q0 -110 -108 -152q-18 -8 -35.5 -12.5t-31 -7t-23 -3.5t-10.5 -1h-44v-76q0 -12 -8 -22t-20 -10t-22 10t-10 22v576q0 12 10 20t22 8t20 -8t8 -20v-80h44q1 0 10.5 -0.5t23 -2t31 -6t35.5 -11.5zM252 356q0 42 -22 64.5t-49 33t-50.5 12.5 t-26.5 2h-44v-300h44q3 1 26.5 4t50.5 13.5t49 33.5t22 65v72z" />
<glyph unicode="&#xdf;" horiz-adv-x="362" d="M254 80q-37 -80 -152 -80q-12 0 -22 10t-10 22t10 20t22 8q39 0 61.5 11.5t33.5 31.5t14 48t3 61q0 21 -9.5 41t-22.5 36.5t-25.5 26.5t-18.5 12l-36 -4q-12 0 -22 10t-10 22t10 20t22 8q15 0 23 12.5t12 27.5q4 18 5 40q0 4 -1 11t-5.5 13.5t-12.5 11t-21 4.5 q-14 0 -22 -4.5t-12.5 -11t-6.5 -13.5t-3 -11v-432q0 -15 -5 -33t-16.5 -34t-31 -26.5t-47.5 -10.5q-12 0 -22 10t-10 22t10 20t22 8q13 0 21 5t12 12.5t5.5 14.5t3.5 12v432q0 15 5 32.5t17 32.5t31.5 25t48.5 10q28 0 47.5 -10t31 -25t16.5 -32.5t5 -32.5q0 -18 -4 -44.5 t-16 -47.5q18 -11 34.5 -28t29.5 -38.5t20.5 -45.5t7.5 -48q0 -30 -2.5 -64.5t-17.5 -67.5z" />
<glyph unicode="&#xe0;" horiz-adv-x="360" d="M212 0q-12 0 -20 8t-8 20l-72 -24q-2 -1 -3 -2q-4 -2 -5 -2q-15 0 -33 5.5t-34 18t-26.5 32t-10.5 48.5q0 12 4 29t16 34.5t34 33.5t58 27q42 12 68 12v44q0 4 -1 11t-5.5 13.5t-12.5 11t-21 4.5q-12 0 -29 -9t-23 -15q-9 -9 -20 -9t-20 9t-9 20t9 20q1 1 9 8.5t20.5 15 t28.5 14t34 6.5q28 0 47.5 -10t31 -25t16.5 -32.5t5 -32.5v-216v-36q0 -12 -8 -22t-20 -10zM180 88v92q-15 -2 -35.5 -6t-39.5 -12.5t-32 -22.5t-13 -35q0 -24 14 -32t26 -8zM54 556q20 20 40 0l72 -72q9 -9 9 -20t-9 -20q-6 -12 -20 -12t-20 12l-72 72q-9 9 -9 20t9 20z " />
<glyph unicode="&#xe1;" horiz-adv-x="360" d="M212 0q-12 0 -20 8t-8 20l-72 -24q-2 -1 -3 -2q-4 -2 -5 -2q-15 0 -33 5.5t-34 18t-26.5 32t-10.5 48.5q0 12 4 29t16 34.5t34 33.5t58 27q42 12 68 12v44q0 4 -1 11t-5.5 13.5t-12.5 11t-21 4.5q-12 0 -29 -9t-23 -15q-9 -9 -20 -9t-20 9t-9 20t9 20q1 1 9 8.5t20.5 15 t28.5 14t34 6.5q28 0 47.5 -10t31 -25t16.5 -32.5t5 -32.5v-216v-36q0 -12 -8 -22t-20 -10zM180 88v92q-15 -2 -35.5 -6t-39.5 -12.5t-32 -22.5t-13 -35q0 -24 14 -32t26 -8zM164 444q-6 -12 -20 -12t-20 12q-9 9 -9 20t9 20l72 72q20 20 40 0q9 -9 9 -20t-9 -20l-72 -72v0z " />
<glyph unicode="&#xe2;" horiz-adv-x="360" d="M212 0q-12 0 -20 8t-8 20l-72 -24q-2 -1 -3 -2q-4 -2 -5 -2q-15 0 -33 5.5t-34 18t-26.5 32t-10.5 48.5q0 12 4 29t16 34.5t34 33.5t58 27q42 12 68 12v44q0 4 -1 11t-5.5 13.5t-12.5 11t-21 4.5q-12 0 -29 -9t-23 -15q-9 -9 -20 -9t-20 9t-9 20t9 20q1 1 9 8.5t20.5 15 t28.5 14t34 6.5q28 0 47.5 -10t31 -25t16.5 -32.5t5 -32.5v-216v-36q0 -12 -8 -22t-20 -10zM180 88v92q-15 -2 -35.5 -6t-39.5 -12.5t-32 -22.5t-13 -35q0 -24 14 -32t26 -8zM88 444q-9 -9 -20 -9t-20 9t-9 20t9 20l72 72q20 20 40 0l72 -72q9 -9 9 -20t-9 -20 q-6 -12 -20 -12t-20 12l-52 48l-52 -48v0z" />
<glyph unicode="&#xe3;" horiz-adv-x="360" d="M212 0q-12 0 -20 8t-8 20l-72 -24q-2 -1 -3 -2q-4 -2 -5 -2q-15 0 -33 5.5t-34 18t-26.5 32t-10.5 48.5q0 12 4 29t16 34.5t34 33.5t58 27q42 12 68 12v44q0 4 -1 11t-5.5 13.5t-12.5 11t-21 4.5q-12 0 -29 -9t-23 -15q-9 -9 -20 -9t-20 9t-9 20t9 20q1 1 9 8.5t20.5 15 t28.5 14t34 6.5q28 0 47.5 -10t31 -25t16.5 -32.5t5 -32.5v-216v-36q0 -12 -8 -22t-20 -10zM180 88v92q-15 -2 -35.5 -6t-39.5 -12.5t-32 -22.5t-13 -35q0 -24 14 -32t26 -8zM106 528q24 0 37 -9t19 -15q12 -12 16 -12q1 0 3 2q0 1 1 2v4q0 12 10 20t22 8t20 -8t8 -20 q0 -9 -3.5 -21t-11 -22.5t-19.5 -17.5t-30 -7q-24 0 -37 11t-19 17t-9.5 7t-6.5 1h-4l-4 -4q0 -12 -8 -22t-20 -10t-22 10t-10 22q0 9 4 20t12 21t21 16.5t31 6.5z" />
<glyph unicode="&#xe4;" horiz-adv-x="360" d="M212 0q-12 0 -20 8t-8 20l-72 -24q-2 -1 -3 -2q-4 -2 -5 -2q-15 0 -33 5.5t-34 18t-26.5 32t-10.5 48.5q0 12 4 29t16 34.5t34 33.5t58 27q42 12 68 12v44q0 4 -1 11t-5.5 13.5t-12.5 11t-21 4.5q-12 0 -29 -9t-23 -15q-9 -9 -20 -9t-20 9t-9 20t9 20q1 1 9 8.5t20.5 15 t28.5 14t34 6.5q28 0 47.5 -10t31 -25t16.5 -32.5t5 -32.5v-216v-36q0 -12 -8 -22t-20 -10zM180 88v92q-15 -2 -35.5 -6t-39.5 -12.5t-32 -22.5t-13 -35q0 -24 14 -32t26 -8zM72 564q12 0 20 -8t8 -20v-72q0 -12 -8 -22t-20 -10t-22 10t-10 22v72q0 12 10 20t22 8zM216 432 q-12 0 -22 10t-10 22v72q0 12 10 20t22 8t20 -8t8 -20v-72q0 -12 -8 -22t-20 -10z" />
<glyph unicode="&#xe5;" horiz-adv-x="360" d="M212 0q-12 0 -20 8t-8 20l-72 -24q-2 -1 -3 -2q-4 -2 -5 -2q-15 0 -33 5.5t-34 18t-26.5 32t-10.5 48.5q0 12 4 29t16 34.5t34 33.5t58 27q42 12 68 12v44q0 4 -1 11t-5.5 13.5t-12.5 11t-21 4.5q-12 0 -29 -9t-23 -15q-9 -9 -20 -9t-20 9t-9 20t9 20q1 1 9 8.5t20.5 15 t28.5 14t34 6.5q28 0 47.5 -10t31 -25t16.5 -32.5t5 -32.5v-216v-36q0 -12 -8 -22t-20 -10zM180 88v92q-15 -2 -35.5 -6t-39.5 -12.5t-32 -22.5t-13 -35q0 -24 14 -32t26 -8zM56 480q0 36 25.5 60t58.5 24q36 0 60 -24t24 -60q0 -33 -24 -58.5t-60 -25.5q-17 0 -32 7 t-26.5 18.5t-18.5 26.5t-7 32zM140 504q-9 0 -16.5 -6t-7.5 -18q0 -9 7.5 -16.5t16.5 -7.5q12 0 18 7.5t6 16.5q0 24 -24 24z" />
<glyph unicode="&#xe6;" horiz-adv-x="504" d="M372 88q9 9 20 9t20 -9q20 -20 0 -40l-36 -36q-6 -12 -20 -12q-36 0 -64 9t-52 27v-4q0 -12 -8 -22t-20 -10t-20 8t-8 20l-72 -24q-2 -1 -3 -2q-4 -2 -5 -2q-15 0 -33 5.5t-34 18t-26.5 32t-10.5 48.5q0 12 4 29t16 34.5t34 33.5t58 27q42 12 68 12v44q0 4 -1 11 t-5.5 13.5t-12.5 11t-21 4.5q-12 0 -29 -9t-23 -15q-9 -9 -20 -9t-20 9t-9 20t9 20q1 1 9 8.5t20.5 15t28.5 14t34 6.5q36 0 58 -15.5t34 -36.5q18 24 42.5 38t45.5 14q28 0 47.5 -10t31 -25t16.5 -32.5t5 -32.5q0 -18 -4.5 -42t-15.5 -46t-30.5 -37t-49.5 -15h-76 q6 -36 27.5 -58t72.5 -22zM180 88v92q-15 -2 -35.5 -6t-39.5 -12.5t-32 -22.5t-13 -35q0 -24 14 -32t26 -8zM240 212q0 -3 2 -4t2 -4h76q15 0 23 12.5t12 27.5q4 18 5 40q0 4 -1 11t-5.5 13.5t-12.5 11t-21 4.5q-6 0 -19.5 -9.5t-27 -25.5t-23.5 -36t-10 -41z" />
<glyph unicode="&#xe7;" d="M233 88q20 -20 0 -40l-32 -32q18 -9 29 -22t11 -34q0 -18 -9 -31t-23 -21t-32 -12t-36 -4t-36.5 4t-33.5 12t-24.5 21t-9.5 31q0 12 10 20t22 8t20 -7.5t8 -16.5q6 -3 19 -7.5t25 -4.5q9 3 19.5 4t16.5 4q-6 3 -16.5 3.5t-19.5 0.5q-12 0 -22 10t-10 22v16 q-27 9 -49.5 26.5t-34.5 41.5q-18 33 -21 67.5t-3 64.5q0 31 14 62t35 55.5t45.5 39.5t45.5 15q28 0 47.5 -10t31 -25t16.5 -32.5t5 -32.5q0 -12 -8 -22t-20 -10t-20 10t-8 22q-2 4 -4 11t-6.5 13.5t-12.5 11t-21 4.5q-6 0 -19.5 -9.5t-27 -25.5t-23.5 -36t-10 -41 q0 -32 2.5 -58.5t13 -46t31.5 -31t57 -12.5l28 24q9 9 20 9t20 -9z" />
<glyph unicode="&#xe8;" horiz-adv-x="325" d="M5 168q0 3 -2 4t-2 4l4 4q-3 9 -3.5 17.5t-0.5 14.5q0 31 14 62t35 55.5t45.5 39.5t45.5 15q28 0 47.5 -10t31 -25t16.5 -32.5t5 -32.5q0 -18 -4.5 -42t-15.5 -46t-30.5 -37t-49.5 -15h-76q6 -36 27.5 -58t72.5 -22l28 24q9 9 20 9t20 -9q20 -20 0 -40l-36 -36 q-6 -12 -20 -12q-115 0 -152 80q-12 21 -16 44t-4 44zM141 324q-6 0 -19.5 -9.5t-27 -25.5t-23.5 -36t-10 -41q0 -3 2 -4t2 -4h76q15 0 23 12.5t12 27.5q4 18 5 40q0 4 -1 11t-5.5 13.5t-12.5 11t-21 4.5zM66 556q20 20 40 0l72 -72q9 -9 9 -20t-9 -20q-6 -12 -20 -12 t-20 12l-72 72q-9 9 -9 20t9 20z" />
<glyph unicode="&#xe9;" horiz-adv-x="325" d="M5 168q0 3 -2 4t-2 4l4 4q-3 9 -3.5 17.5t-0.5 14.5q0 31 14 62t35 55.5t45.5 39.5t45.5 15q28 0 47.5 -10t31 -25t16.5 -32.5t5 -32.5q0 -18 -4.5 -42t-15.5 -46t-30.5 -37t-49.5 -15h-76q6 -36 27.5 -58t72.5 -22l28 24q9 9 20 9t20 -9q20 -20 0 -40l-36 -36 q-6 -12 -20 -12q-115 0 -152 80q-12 21 -16 44t-4 44zM141 324q-6 0 -19.5 -9.5t-27 -25.5t-23.5 -36t-10 -41q0 -3 2 -4t2 -4h76q15 0 23 12.5t12 27.5q4 18 5 40q0 4 -1 11t-5.5 13.5t-12.5 11t-21 4.5zM146 444q-6 -12 -20 -12t-20 12q-9 9 -9 20t9 20l72 72q20 20 40 0 q9 -9 9 -20t-9 -20l-72 -72v0z" />
<glyph unicode="&#xea;" horiz-adv-x="325" d="M5 168q0 3 -2 4t-2 4l4 4q-3 9 -3.5 17.5t-0.5 14.5q0 31 14 62t35 55.5t45.5 39.5t45.5 15q28 0 47.5 -10t31 -25t16.5 -32.5t5 -32.5q0 -18 -4.5 -42t-15.5 -46t-30.5 -37t-49.5 -15h-76q6 -36 27.5 -58t72.5 -22l28 24q9 9 20 9t20 -9q20 -20 0 -40l-36 -36 q-6 -12 -20 -12q-115 0 -152 80q-12 21 -16 44t-4 44zM141 324q-6 0 -19.5 -9.5t-27 -25.5t-23.5 -36t-10 -41q0 -3 2 -4t2 -4h76q15 0 23 12.5t12 27.5q4 18 5 40q0 4 -1 11t-5.5 13.5t-12.5 11t-21 4.5zM90 444q-9 -9 -20 -9t-20 9t-9 20t9 20l72 72q20 20 40 0l72 -72 q9 -9 9 -20t-9 -20q-6 -12 -20 -12t-20 12l-52 48l-52 -48v0z" />
<glyph unicode="&#xeb;" horiz-adv-x="325" d="M5 168q0 3 -2 4t-2 4l4 4q-3 9 -3.5 17.5t-0.5 14.5q0 31 14 62t35 55.5t45.5 39.5t45.5 15q28 0 47.5 -10t31 -25t16.5 -32.5t5 -32.5q0 -18 -4.5 -42t-15.5 -46t-30.5 -37t-49.5 -15h-76q6 -36 27.5 -58t72.5 -22l28 24q9 9 20 9t20 -9q20 -20 0 -40l-36 -36 q-6 -12 -20 -12q-115 0 -152 80q-12 21 -16 44t-4 44zM141 324q-6 0 -19.5 -9.5t-27 -25.5t-23.5 -36t-10 -41q0 -3 2 -4t2 -4h76q15 0 23 12.5t12 27.5q4 18 5 40q0 4 -1 11t-5.5 13.5t-12.5 11t-21 4.5zM55 564q12 0 20 -8t8 -20v-72q0 -12 -8 -22t-20 -10t-22 10t-10 22 v72q0 12 10 20t22 8zM199 432q-12 0 -22 10t-10 22v72q0 12 10 20t22 8t20 -8t8 -20v-72q0 -12 -8 -22t-20 -10z" />
<glyph unicode="&#xec;" horiz-adv-x="144" d="M32 0q-12 0 -22 10t-10 22v324q0 12 10 20t22 8t20 -8t8 -20v-324q0 -12 -8 -22t-20 -10zM-56 556q20 20 40 0l72 -72q9 -9 9 -20t-9 -20q-6 -12 -20 -12t-20 12l-72 72q-9 9 -9 20t9 20z" />
<glyph unicode="&#xed;" horiz-adv-x="147" d="M32 0q-12 0 -22 10t-10 22v324q0 12 10 20t22 8t20 -8t8 -20v-324q0 -12 -8 -22t-20 -10zM50 444q-6 -12 -20 -12t-20 12q-9 9 -9 20t9 20l72 72q20 20 40 0q9 -9 9 -20t-9 -20z" />
<glyph unicode="&#xee;" horiz-adv-x="144" d="M32 0q-12 0 -22 10t-10 22v324q0 12 10 20t22 8t20 -8t8 -20v-324q0 -12 -8 -22t-20 -10zM-20 444q-9 -9 -20 -9t-20 9t-9 20t9 20l72 72q20 20 40 0l72 -72q9 -9 9 -20t-9 -20q-6 -12 -20 -12t-20 12l-52 48z" />
<glyph unicode="&#xef;" horiz-adv-x="144" d="M32 0q-12 0 -22 10t-10 22v324q0 12 10 20t22 8t20 -8t8 -20v-324q0 -12 -8 -22t-20 -10zM-18 564q12 0 20 -8t8 -20v-72q0 -12 -8 -22t-20 -10t-22 10t-10 22v72q0 12 10 20t22 8zM86 432q-12 0 -22 10t-10 22v72q0 12 10 20t22 8t20 -8t8 -20v-72q0 -12 -8 -22t-20 -10 z" />
<glyph unicode="&#xf0;" horiz-adv-x="360" d="M232 556q9 -9 9 -20t-9 -20l-12 -12q12 -18 16 -38t4 -38v-360v-36q0 -12 -8 -22t-20 -10q-6 0 -10 2.5t-10 5.5q-3 -3 -6.5 -5.5t-9.5 -2.5q-115 0 -152 80q-18 33 -21 67.5t-3 64.5q0 31 14 62t35 55.5t45.5 39.5t45.5 15q12 0 23 -0.5t17 -3.5v48q-1 4 -1 8q-1 4 -1 9 t-2 11l-52 -48q-6 -12 -20 -12t-20 12q-9 9 -9 20t9 20l52 52q-9 3 -16 3.5t-16 0.5h-36q-12 0 -22 10t-10 22t10 20t22 8h36q24 0 42.5 -4t33.5 -16l12 12q20 20 40 0zM180 80v204q0 4 -1 11t-5.5 13.5t-12.5 11t-21 4.5q-6 0 -19.5 -9.5t-27 -25.5t-23.5 -36t-10 -41 q0 -32 2.5 -58.5t13 -46t31.5 -31t57 -12.5z" />
<glyph unicode="&#xf1;" horiz-adv-x="325" d="M33 0q-12 0 -22 10t-10 22v324q0 12 10 20t22 8q6 0 12 -2.5t12 -5.5q9 3 21 5.5t27 2.5q21 0 45 -15t44 -39.5t33.5 -55.5t13.5 -62v-180q0 -12 -8 -22t-20 -10t-22 10t-10 22v180q0 21 -9.5 41t-22.5 36.5t-25.5 26.5t-18.5 12q-14 -2 -22 -7t-12.5 -12t-6.5 -14 t-3 -11v-252q0 -12 -8 -22t-20 -10zM88 528q24 0 37 -9t19 -15q12 -12 16 -12q1 0 3 2q0 1 1 2v4q0 12 10 20t22 8t20 -8t8 -20q0 -9 -3.5 -21t-11 -22.5t-19.5 -17.5t-30 -7q-24 0 -37 11t-19 17t-9.5 7t-6.5 1h-4l-4 -4q0 -12 -8 -22t-20 -10t-22 10t-10 22q0 9 4 20 t12 21t21 16.5t31 6.5z" />
<glyph unicode="&#xf2;" horiz-adv-x="325" d="M141 0q-21 0 -45.5 15.5t-45.5 41t-35 56.5t-14 63v108q0 15 5.5 32.5t18 32.5t32 25t48.5 10q21 0 45 -15t44 -39.5t33.5 -55.5t13.5 -62v-108q0 -15 -5 -33t-16.5 -34t-31 -26.5t-47.5 -10.5zM61 176q0 -21 10 -41t23.5 -36.5t27 -27t19.5 -11.5q13 1 21 6.5t12.5 12.5 t5.5 13.5t1 11.5v108q0 21 -9.5 41t-22.5 36.5t-25.5 26.5t-18.5 12q-14 -2 -22 -7t-12.5 -12t-6.5 -14t-3 -11v-108zM36 556q20 20 40 0l72 -72q9 -9 9 -20t-9 -20q-6 -12 -20 -12t-20 12l-72 72q-9 9 -9 20t9 20z" />
<glyph unicode="&#xf3;" horiz-adv-x="325" d="M141 0q-21 0 -45.5 15.5t-45.5 41t-35 56.5t-14 63v108q0 15 5.5 32.5t18 32.5t32 25t48.5 10q21 0 45 -15t44 -39.5t33.5 -55.5t13.5 -62v-108q0 -15 -5 -33t-16.5 -34t-31 -26.5t-47.5 -10.5zM61 176q0 -21 10 -41t23.5 -36.5t27 -27t19.5 -11.5q13 1 21 6.5t12.5 12.5 t5.5 13.5t1 11.5v108q0 21 -9.5 41t-22.5 36.5t-25.5 26.5t-18.5 12q-14 -2 -22 -7t-12.5 -12t-6.5 -14t-3 -11v-108zM146 444q-6 -12 -20 -12t-20 12q-9 9 -9 20t9 20l72 72q20 20 40 0q9 -9 9 -20t-9 -20l-72 -72v0z" />
<glyph unicode="&#xf4;" horiz-adv-x="325" d="M141 0q-21 0 -45.5 15.5t-45.5 41t-35 56.5t-14 63v108q0 15 5.5 32.5t18 32.5t32 25t48.5 10q21 0 45 -15t44 -39.5t33.5 -55.5t13.5 -62v-108q0 -15 -5 -33t-16.5 -34t-31 -26.5t-47.5 -10.5zM61 176q0 -21 10 -41t23.5 -36.5t27 -27t19.5 -11.5q13 1 21 6.5t12.5 12.5 t5.5 13.5t1 11.5v108q0 21 -9.5 41t-22.5 36.5t-25.5 26.5t-18.5 12q-14 -2 -22 -7t-12.5 -12t-6.5 -14t-3 -11v-108zM63 444q-9 -9 -20 -9t-20 9t-9 20t9 20l72 72q20 20 40 0l72 -72q9 -9 9 -20t-9 -20q-6 -12 -20 -12t-20 12l-52 48l-52 -48v0z" />
<glyph unicode="&#xf5;" horiz-adv-x="325" d="M141 0q-21 0 -45.5 15.5t-45.5 41t-35 56.5t-14 63v108q0 15 5.5 32.5t18 32.5t32 25t48.5 10q21 0 45 -15t44 -39.5t33.5 -55.5t13.5 -62v-108q0 -15 -5 -33t-16.5 -34t-31 -26.5t-47.5 -10.5zM61 176q0 -21 10 -41t23.5 -36.5t27 -27t19.5 -11.5q13 1 21 6.5t12.5 12.5 t5.5 13.5t1 11.5v108q0 21 -9.5 41t-22.5 36.5t-25.5 26.5t-18.5 12q-14 -2 -22 -7t-12.5 -12t-6.5 -14t-3 -11v-108zM88 528q24 0 37 -9t19 -15q12 -12 16 -12q1 0 3 2q0 1 1 2v4q0 12 10 20t22 8t20 -8t8 -20q0 -9 -3.5 -21t-11 -22.5t-19.5 -17.5t-30 -7q-24 0 -37 11 t-19 17t-9.5 7t-6.5 1h-4l-4 -4q0 -12 -8 -22t-20 -10t-22 10t-10 22q0 9 4 20t12 21t21 16.5t31 6.5z" />
<glyph unicode="&#xf6;" horiz-adv-x="325" d="M141 0q-21 0 -45.5 15.5t-45.5 41t-35 56.5t-14 63v108q0 15 5.5 32.5t18 32.5t32 25t48.5 10q21 0 45 -15t44 -39.5t33.5 -55.5t13.5 -62v-108q0 -15 -5 -33t-16.5 -34t-31 -26.5t-47.5 -10.5zM61 176q0 -21 10 -41t23.5 -36.5t27 -27t19.5 -11.5q13 1 21 6.5t12.5 12.5 t5.5 13.5t1 11.5v108q0 21 -9.5 41t-22.5 36.5t-25.5 26.5t-18.5 12q-14 -2 -22 -7t-12.5 -12t-6.5 -14t-3 -11v-108zM52 564q12 0 20 -8t8 -20v-72q0 -12 -8 -22t-20 -10t-22 10t-10 22v72q0 12 10 20t22 8zM196 432q-12 0 -22 10t-10 22v72q0 12 10 20t22 8t20 -8t8 -20 v-72q0 -12 -8 -22t-20 -10z" />
<glyph unicode="&#xf7;" horiz-adv-x="432" d="M32 180q-12 0 -22 10t-10 22t10 20t22 8h288q12 0 20 -8t8 -20t-8 -22t-20 -10h-288zM144 140q0 12 10 20t22 8t20 -8t8 -20v-72q0 -12 -8 -22t-20 -10t-22 10t-10 22v72zM176 252q-12 0 -22 10t-10 22v72q0 12 10 20t22 8t20 -8t8 -20v-72q0 -12 -8 -22t-20 -10z" />
<glyph unicode="&#xf8;" horiz-adv-x="325" d="M188 348q9 -3 14 -13t2 -19q36 -48 36 -104v-108q0 -15 -5 -33t-16.5 -34t-31 -26.5t-47.5 -10.5q-18 0 -36 10.5t-36 25.5q-3 0 -6 2t-6 2q-9 3 -14 13t-2 19q-18 24 -29 50.5t-11 53.5v108q0 15 5.5 32.5t18 32.5t32 25t48.5 10q34 0 72 -32q4 -4 12 -4zM104 328 q-14 -2 -22 -7t-12.5 -12t-6.5 -14t-3 -11v-108q0 -9 2.5 -16t5.5 -16l68 160q-9 9 -17.5 15t-14.5 9zM140 60q13 1 21 6.5t12.5 12.5t6.5 13.5t4 11.5l-4 108q0 9 -0.5 16t-3.5 16l-68 -160q9 -9 17.5 -15t14.5 -9z" />
<glyph unicode="&#xf9;" d="M140 0q-21 0 -45.5 15.5t-45.5 41t-35 56.5t-14 63v180q0 12 10 20t22 8t20 -8t8 -20v-180q0 -21 10 -41t23.5 -36.5t27 -27t19.5 -11.5q13 0 21 5t12.5 12.5t5.5 14.5t1 12v252q0 12 10 20t22 8t20 -8t8 -20v-324q0 -12 -8 -22t-20 -10q-6 0 -12 4.5t-12 7.5 q-9 -3 -21 -7.5t-27 -4.5zM32 556q20 20 40 0l72 -72q9 -9 9 -20t-9 -20q-6 -12 -20 -12t-20 12l-72 72q-9 9 -9 20t9 20z" />
<glyph unicode="&#xfa;" d="M140 0q-21 0 -45.5 15.5t-45.5 41t-35 56.5t-14 63v180q0 12 10 20t22 8t20 -8t8 -20v-180q0 -21 10 -41t23.5 -36.5t27 -27t19.5 -11.5q13 0 21 5t12.5 12.5t5.5 14.5t1 12v252q0 12 10 20t22 8t20 -8t8 -20v-324q0 -12 -8 -22t-20 -10q-6 0 -12 4.5t-12 7.5 q-9 -3 -21 -7.5t-27 -4.5zM146 444q-6 -12 -20 -12t-20 12q-9 9 -9 20t9 20l72 72q20 20 40 0q9 -9 9 -20t-9 -20l-72 -72v0z" />
<glyph unicode="&#xfb;" d="M140 0q-21 0 -45.5 15.5t-45.5 41t-35 56.5t-14 63v180q0 12 10 20t22 8t20 -8t8 -20v-180q0 -21 10 -41t23.5 -36.5t27 -27t19.5 -11.5q13 0 21 5t12.5 12.5t5.5 14.5t1 12v252q0 12 10 20t22 8t20 -8t8 -20v-324q0 -12 -8 -22t-20 -10q-6 0 -12 4.5t-12 7.5 q-9 -3 -21 -7.5t-27 -4.5zM70 444q-9 -9 -20 -9t-20 9t-9 20t9 20l72 72q20 20 40 0l72 -72q9 -9 9 -20t-9 -20q-6 -12 -20 -12t-20 12l-52 48l-52 -48v0z" />
<glyph unicode="&#xfc;" d="M140 0q-21 0 -45.5 15.5t-45.5 41t-35 56.5t-14 63v180q0 12 10 20t22 8t20 -8t8 -20v-180q0 -21 10 -41t23.5 -36.5t27 -27t19.5 -11.5q13 0 21 5t12.5 12.5t5.5 14.5t1 12v252q0 12 10 20t22 8t20 -8t8 -20v-324q0 -12 -8 -22t-20 -10q-6 0 -12 4.5t-12 7.5 q-9 -3 -21 -7.5t-27 -4.5zM53 564q12 0 20 -8t8 -20v-72q0 -12 -8 -22t-20 -10t-22 10t-10 22v72q0 12 10 20t22 8zM197 432q-12 0 -22 10t-10 22v72q0 12 10 20t22 8t20 -8t8 -20v-72q0 -12 -8 -22t-20 -10z" />
<glyph unicode="&#xfd;" d="M240 -76q0 -18 -8 -42t-27.5 -46t-52.5 -37t-84 -15q-12 0 -22 10t-10 22t10 20t22 8q42 0 64.5 12t33 26.5t12.5 27t2 14.5v84q-6 -3 -17 -5.5t-23 -2.5q-21 0 -45.5 15.5t-45.5 41t-35 56.5t-14 63v180q0 12 10 20t22 8t20 -8t8 -20v-180q0 -21 10 -41t23.5 -36.5 t27 -27t19.5 -11.5q13 0 21 5t12.5 12.5t5.5 14.5t1 12v252q0 12 10 20t22 8t20 -8t8 -20v-432v0zM146 444q-6 -12 -20 -12t-20 12q-9 9 -9 20t9 20l72 72q20 20 40 0q9 -9 9 -20t-9 -20l-72 -72v0z" />
<glyph unicode="&#xfe;" horiz-adv-x="360" d="M104 384q21 0 45 -15t44 -39.5t33.5 -55.5t13.5 -62q0 -30 -2.5 -64.5t-17.5 -67.5q-37 -80 -152 -80q-3 0 -4 2t-4 2v-188q0 -12 -8 -22t-20 -10t-22 10t-10 22v252v468q0 12 10 20t22 8t20 -8t8 -20v-156q9 3 20.5 3.5t23.5 0.5zM80 64q36 1 56 12.5t30 31t12 46 t2 58.5q0 21 -9.5 41t-22.5 36.5t-25.5 26.5t-18.5 12q-14 -2 -22 -7t-12.5 -12t-6.5 -14t-3 -11v-204z" />
<glyph unicode="&#xff;" d="M240 -76q0 -18 -8 -42t-27.5 -46t-52.5 -37t-84 -15q-12 0 -22 10t-10 22t10 20t22 8q42 0 64.5 12t33 26.5t12.5 27t2 14.5v84q-6 -3 -17 -5.5t-23 -2.5q-21 0 -45.5 15.5t-45.5 41t-35 56.5t-14 63v180q0 12 10 20t22 8t20 -8t8 -20v-180q0 -21 10 -41t23.5 -36.5 t27 -27t19.5 -11.5q13 0 21 5t12.5 12.5t5.5 14.5t1 12v252q0 12 10 20t22 8t20 -8t8 -20v-432v0zM55 564q12 0 20 -8t8 -20v-72q0 -12 -8 -22t-20 -10t-22 10t-10 22v72q0 12 10 20t22 8zM199 432q-12 0 -22 10t-10 22v72q0 12 10 20t22 8t20 -8t8 -20v-72q0 -12 -8 -22 t-20 -10z" />
<glyph unicode="&#x131;" horiz-adv-x="144" d="M32 0q-12 0 -22 10t-10 22v324q0 12 10 20t22 8t20 -8t8 -20v-324q0 -12 -8 -22t-20 -10z" />
<glyph unicode="&#x141;" horiz-adv-x="406" d="M378 32q0 -12 -8 -22t-20 -10h-252q-12 0 -22 10t-10 22v236l-32 -12q-2 -1 -3 -2q-4 -2 -5 -2q-9 0 -17 6t-11 18t2.5 22.5t17.5 13.5l48 16v280q0 12 10 20t22 8t20 -8t8 -20v-260l108 36q12 3 22.5 -2.5t13.5 -17.5t-2.5 -22.5t-17.5 -13.5l-124 -40v-228h224 q12 0 20 -8t8 -20z" />
<glyph unicode="&#x142;" horiz-adv-x="251" d="M95 256v-116q1 0 2.5 -12.5t6 -27.5t12.5 -27.5t23 -12.5q12 0 20 -8t8 -20t-8 -22t-20 -10q-30 0 -50 15t-32 37t-17 46t-5 42v80q-1 -1 -1 -2q-2 -2 -3 -2q-6 0 -13.5 5t-10.5 11q-9 9 -6.5 21.5t14.5 18.5l20 16v248q0 12 10 20t22 8t20 -8t8 -20v-208l28 16 q9 9 21.5 6.5t18.5 -14.5q9 -9 6.5 -21.5t-14.5 -18.5z" />
<glyph unicode="&#x152;" horiz-adv-x="720" d="M384 576v-192h152q12 0 20 -8t8 -20t-8 -22t-20 -10h-152v-164v-100h224q12 0 20 -8t8 -20t-8 -22t-20 -10h-252q-12 0 -22 10t-10 22q-15 -12 -39 -22t-57 -10q-21 0 -46 11.5t-50.5 31.5t-49 47t-42 59t-29.5 67.5t-11 71.5v192q0 3 4 26t16 50q15 30 47.5 55t92.5 25 q36 0 82 -31t82 -85v88q0 12 10 20t22 8h252q12 0 20 -8t8 -20t-8 -22t-20 -10h-224zM228 60q36 0 55.5 14.5t28.5 32.5t10.5 34t1.5 19v192q0 43 -19 83.5t-45 72t-54 50t-46 18.5q-36 0 -55.5 -14t-29 -31t-12 -32.5t-3.5 -18.5v-192q0 -44 19.5 -85t46.5 -72.5t55.5 -51 t46.5 -19.5z" />
<glyph unicode="&#x153;" horiz-adv-x="510" d="M370 88q9 9 20 9t20 -9q20 -20 0 -40l-36 -36q-6 -12 -20 -12q-86 0 -128 48q-12 -18 -33.5 -33t-54.5 -15q-21 0 -45.5 15.5t-45.5 41t-35 56.5t-14 63v108q0 15 5.5 32.5t18 32.5t32 25t48.5 10q27 0 57 -21.5t51 -54.5q21 33 51 54.5t57 21.5q28 0 47.5 -10t31 -25 t16.5 -32.5t5 -32.5q0 -18 -4.5 -42t-15.5 -46t-30.5 -37t-49.5 -15h-76q6 -36 27.5 -58t72.5 -22zM138 60q13 1 21 6.5t12.5 12.5t6.5 13.5t4 11.5l-4 72v36q0 21 -9.5 41t-22.5 36.5t-25.5 26.5t-18.5 12q-14 -2 -22 -7t-12.5 -12t-6.5 -14t-3 -11v-108q0 -21 10 -41 t23.5 -36.5t27 -27t19.5 -11.5zM238 212q0 -3 2 -4t2 -4h76q15 0 23 12.5t12 27.5q4 18 5 40q0 4 -1 11t-5.5 13.5t-12.5 11t-21 4.5q-6 0 -19.5 -9.5t-27 -25.5t-23.5 -36t-10 -41z" />
<glyph unicode="&#x160;" horiz-adv-x="396" d="M176 384q33 0 58 -8t43.5 -21t30.5 -28.5t20 -30.5t11.5 -30t5.5 -27q2 -14 3 -27q0 -2 -0.5 -11t-2.5 -23t-7 -32.5t-14 -37.5q-9 -18 -23.5 -37t-37 -35t-53 -26t-70.5 -10q-2 0 -17 2t-36 11t-44 27.5t-39 51.5q-6 9 -1 21.5t17 18.5q9 6 21.5 1t18.5 -17 q9 -20 22.5 -30.5t26.5 -15.5t22 -7t9 -3q45 0 77.5 19.5t50.5 52.5q8 15 11.5 29.5t5.5 25.5q2 13 3 25q0 4 -2.5 22.5t-13 38t-33.5 35.5t-63 16h-36q-38 0 -64.5 14t-43 35t-24.5 45.5t-8 45.5q0 13 4 27q2 12 7 27t13 30q7 15 19.5 30.5t31 28.5t43.5 21t58 8 q1 0 16.5 -1.5t36.5 -9.5t43.5 -26t39.5 -51q6 -9 1 -21.5t-17 -18.5q-9 -6 -21.5 -1t-18.5 17q-11 20 -25 30t-26 15q-15 5 -29 7q-71 0 -100 -52q-5 -12 -8 -23t-5 -19q-3 -10 -3 -18q3 0 4.5 -13t7.5 -31q18 -36 68 -36h36v0zM116 812l52 -48l52 48q6 12 20 12t20 -12 q9 -9 9 -20t-9 -20l-72 -72q-9 -9 -20 -9t-20 9l-72 72q-9 9 -9 20t9 20q20 20 40 0z" />
<glyph unicode="&#x161;" horiz-adv-x="287" d="M103 180q-29 0 -48.5 10.5t-32 26.5t-18 34t-5.5 33t5.5 32.5t18 32.5t32 25t48.5 10q1 0 9.5 -0.5t21.5 -5t28.5 -13.5t32.5 -25q9 -9 9 -20t-9 -20t-20 -9t-20 9q-11 9 -20.5 14t-16.5 7q-9 3 -15 3q-14 0 -21.5 -4.5t-12 -11t-5.5 -13.5t-1 -11q0 -5 1 -12t5.5 -14.5 t12 -12.5t21.5 -5q37 0 63 -13.5t42.5 -33.5t23.5 -44t7 -45q0 -15 -5 -33t-16.5 -34t-31 -26.5t-47.5 -10.5q-15 0 -32 1.5t-34.5 10t-35.5 27t-34 53.5q-6 9 -1 21.5t17 18.5q9 6 21.5 1t18.5 -17q10 -21 19.5 -32.5t19 -16.5t19.5 -6t22 -1q13 0 21 5t12.5 12.5t5.5 14.5 t1 12q0 3 -1 16t-7 28q-9 18 -26.5 25t-41.5 7zM64 556l52 -48l52 48q6 12 20 12t20 -12q9 -9 9 -20t-9 -20l-72 -72q-9 -9 -20 -9t-20 9l-72 72q-9 9 -9 20t9 20q20 20 40 0z" />
<glyph unicode="&#x178;" horiz-adv-x="396" d="M332 636q12 -6 17 -18.5t-1 -21.5l-144 -284v-280q0 -12 -8 -22t-20 -10t-22 10t-10 22v280l-140 284q-6 9 -1 21.5t17 18.5q9 6 21.5 1t18.5 -17l116 -232l116 232q6 12 18.5 17t21.5 -1zM109 830q12 0 20 -8t8 -20v-72q0 -12 -8 -22t-20 -10t-22 10t-10 22v72 q0 12 10 20t22 8zM253 698q-12 0 -22 10t-10 22v72q0 12 10 20t22 8t20 -8t8 -20v-72q0 -12 -8 -22t-20 -10z" />
<glyph unicode="&#x17d;" horiz-adv-x="431" d="M318 60q12 0 20 -8t8 -20t-8 -22t-20 -10h-288q-9 0 -15 5t-9 11q-6 6 -6.5 14t2.5 14l268 532h-240q-12 0 -22 10t-10 22t10 20t22 8h288q18 0 24 -12q6 -6 6.5 -14t-2.5 -14l-268 -536h240v0zM143 812l52 -48l52 48q6 12 20 12t20 -12q9 -9 9 -20t-9 -20l-72 -72 q-9 -9 -20 -9t-20 9l-72 72q-9 9 -9 20t9 20q20 20 40 0z" />
<glyph unicode="&#x17e;" horiz-adv-x="367" d="M32 324q-12 0 -22 10t-10 22t10 20t22 8h216q16 0 28 -12q3 -9 2.5 -17.5t-6.5 -14.5l-184 -280h160q12 0 20 -8t8 -20t-8 -22t-20 -10h-216q-9 0 -15.5 5t-12.5 11q-3 9 -2.5 17.5t6.5 14.5l184 276h-160v0zM101 556l52 -48l52 48q6 12 20 12t20 -12q9 -9 9 -20t-9 -20 l-72 -72q-9 -9 -20 -9t-20 9l-72 72q-9 9 -9 20t9 20q20 20 40 0z" />
<glyph unicode="&#x192;" horiz-adv-x="287" d="M72 496q0 28 10 48t25 32.5t32.5 18t32.5 5.5q18 0 31 -7.5t21 -18t12 -22t4 -20.5q0 -8 -4 -14q-3 -5 -9.5 -9.5t-18.5 -4.5t-18 4.5t-8 9.5q-3 6 -2 14l-4 4q-1 1 -1 2q-2 2 -3 2q-5 0 -11.5 -2t-13 -6.5t-11 -13.5t-4.5 -22v-112h40q12 0 22 -10t10 -22t-10 -20 t-22 -8h-40v-296q0 -15 -5.5 -32.5t-18 -32.5t-32.5 -25t-48 -10q-12 0 -20 8t-8 20t8 22t20 10q13 0 21 4.5t12.5 11t6.5 13t4 11.5v296h-44q-12 0 -20 8t-8 20t8 22t20 10h44v112v0z" />
<glyph unicode="&#x2c6;" horiz-adv-x="282" d="M46 444q-9 -9 -20 -9t-20 9t-9 20t9 20l72 72q20 20 40 0l72 -72q9 -9 9 -20t-9 -20q-6 -12 -20 -12t-20 12l-52 48l-52 -48v0z" />
<glyph unicode="&#x2c7;" horiz-adv-x="282" d="M46 556l52 -48l52 48q6 12 20 12t20 -12q9 -9 9 -20t-9 -20l-72 -72q-9 -9 -20 -9t-20 9l-72 72q-9 9 -9 20t9 20q20 20 40 0z" />
<glyph unicode="&#x2d8;" horiz-adv-x="252" d="M84 396q-17 0 -32 7t-26.5 18.5t-18.5 26.5t-7 32q0 15 10 23.5t22 8.5t20 -8.5t8 -23.5q0 -9 7.5 -16.5t16.5 -7.5q12 0 18 7.5t6 16.5q0 15 10 23.5t22 8.5t20 -8.5t8 -23.5q0 -33 -24 -58.5t-60 -25.5z" />
<glyph unicode="&#x2d9;" horiz-adv-x="145" d="M32 505q-12 0 -22 10t-10 22v72q0 12 10 20t22 8t20 -8t8 -20v-72q0 -12 -8 -22t-20 -10z" />
<glyph unicode="&#x2da;" horiz-adv-x="260" d="M0 480q0 36 25.5 60t58.5 24q36 0 60 -24t24 -60q0 -33 -24 -58.5t-60 -25.5q-17 0 -32 7t-26.5 18.5t-18.5 26.5t-7 32zM84 504q-9 0 -16.5 -6t-7.5 -18q0 -9 7.5 -16.5t16.5 -7.5q12 0 18 7.5t6 16.5q0 24 -24 24z" />
<glyph unicode="&#x2db;" horiz-adv-x="252" d="M132 32q0 -12 -8 -20.5t-20 -11.5q-9 0 -19.5 -0.5t-16.5 -3.5q6 -3 16.5 -5.5t19.5 -2.5q12 0 20 -8t8 -20t-8 -22t-20 -10q-18 0 -36.5 4t-33.5 12t-24.5 21t-9.5 31t9.5 30t24.5 19.5t33.5 11t36.5 3.5q12 0 20 -8t8 -20z" />
<glyph unicode="&#x2dc;" horiz-adv-x="286" d="M66 528q24 0 37 -9t19 -15q12 -12 16 -12q1 0 3 2q0 1 1 2v4q0 12 10 20t22 8t20 -8t8 -20q0 -9 -3.5 -21t-11 -22.5t-19.5 -17.5t-30 -7q-24 0 -37 11t-19 17t-9.5 7t-6.5 1h-4l-4 -4q0 -12 -8 -22t-20 -10t-22 10t-10 22q0 9 4 20t12 21t21 16.5t31 6.5z" />
<glyph unicode="&#x2dd;" horiz-adv-x="399" d="M48 444q-6 -12 -20 -12t-20 12q-9 9 -9 20t9 20l72 72q20 20 40 0q9 -9 9 -20t-9 -20zM230 444q-6 -12 -20 -12t-20 12q-9 9 -9 20t9 20l72 72q20 20 40 0q9 -9 9 -20t-9 -20z" />
<glyph unicode="&#x2013;" horiz-adv-x="432" d="M32 180q-12 0 -22 10t-10 22t10 20t22 8h288q12 0 20 -8t8 -20t-8 -22t-20 -10h-288v0z" />
<glyph unicode="&#x2014;" horiz-adv-x="583" d="M32 180q-12 0 -22 10t-10 22t10 20t22 8h438q12 0 20 -8t8 -20t-8 -22t-20 -10h-438v0z" />
<glyph unicode="&#x2018;" horiz-adv-x="212" d="M32 468q-12 0 -22 10t-10 22q0 18 5 41.5t17 44.5t32 35.5t50 14.5q12 0 20 -8t8 -20t-8 -22t-20 -10q-15 0 -23.5 -12t-13.5 -26q-5 -17 -7 -38q0 -12 -8 -22t-20 -10z" />
<glyph unicode="&#x2019;" horiz-adv-x="212" d="M100 636q12 0 22 -10t10 -22q0 -18 -5 -41.5t-17 -44.5t-32 -35.5t-50 -14.5q-12 0 -20 8t-8 20t8 22t20 10q15 0 23.5 12t13.5 26q5 17 7 38q0 12 8 22t20 10z" />
<glyph unicode="&#x201a;" horiz-adv-x="209" d="M101 71q12 0 22 -10t10 -22q0 -18 -5 -41.5t-17 -44.5t-32 -35.5t-50 -14.5q-12 0 -20 8t-8 20t8 22t20 10q15 0 23.5 12t13.5 26q5 17 7 38q0 12 8 22t20 10z" />
<glyph unicode="&#x201c;" horiz-adv-x="288" d="M32 468q-12 0 -22 10t-10 22q0 18 5 41.5t17 44.5t32 35.5t50 14.5q12 0 20 -8t8 -20t-8 -22t-20 -10q-15 0 -23.5 -12t-13.5 -26q-5 -17 -7 -38q0 -12 -8 -22t-20 -10zM140 468q-12 0 -22 10t-10 22q0 18 5 41.5t17 44.5t32 35.5t50 14.5q12 0 20 -8t8 -20t-8 -22 t-20 -10q-15 0 -23.5 -12t-13.5 -26q-5 -17 -7 -38q0 -12 -8 -22t-20 -10z" />
<glyph unicode="&#x201d;" horiz-adv-x="288" d="M208 636q12 0 22 -10t10 -22q0 -18 -5 -41.5t-17 -44.5t-32 -35.5t-50 -14.5q-12 0 -20 8t-8 20t8 22t20 10q15 0 23.5 12t13.5 26q5 17 7 38q0 12 8 22t20 10zM100 636q12 0 22 -10t10 -22q0 -18 -5 -41.5t-17 -44.5t-32 -35.5t-50 -14.5q-12 0 -20 8t-8 20t8 22t20 10 q15 0 23.5 12t13.5 26q5 17 7 38q0 12 8 22t20 10z" />
<glyph unicode="&#x201e;" horiz-adv-x="288" d="M209 71q12 0 22 -10t10 -22q0 -18 -5 -41.5t-17 -44.5t-32 -35.5t-50 -14.5q-12 0 -20 8t-8 20t8 22t20 10q15 0 23.5 12t13.5 26q5 17 7 38q0 12 8 22t20 10zM101 71q12 0 22 -10t10 -22q0 -18 -5 -41.5t-17 -44.5t-32 -35.5t-50 -14.5q-12 0 -20 8t-8 20t8 22t20 10 q15 0 23.5 12t13.5 26q5 17 7 38q0 12 8 22t20 10z" />
<glyph unicode="&#x2020;" horiz-adv-x="432" d="M204 32q0 -12 -8 -22t-20 -10t-22 10t-10 22v400h-112q-12 0 -22 10t-10 22t10 20t22 8h112v116q0 12 10 20t22 8t20 -8t8 -20v-116h116q12 0 20 -8t8 -20t-8 -22t-20 -10h-116v-400z" />
<glyph unicode="&#x2021;" horiz-adv-x="432" d="M204 180v-148q0 -12 -8 -22t-20 -10t-22 10t-10 22v148h-112q-12 0 -22 10t-10 22t10 20t22 8h112v192h-112q-12 0 -22 10t-10 22t10 20t22 8h112v116q0 12 10 20t22 8t20 -8t8 -20v-116h116q12 0 20 -8t8 -20t-8 -22t-20 -10h-116v-192h116q12 0 20 -8t8 -20t-8 -22 t-20 -10h-116z" />
<glyph unicode="&#x2022;" horiz-adv-x="329" d="M109 392q22 0 42 -8.5t34.5 -23t23 -34.5t8.5 -42q0 -23 -8.5 -42.5t-23 -34t-34.5 -23t-42 -8.5q-23 0 -42.5 8.5t-34 23t-23 34t-8.5 42.5q0 22 8.5 42t23 34.5t34 23t42.5 8.5z" />
<glyph unicode="&#x2026;" horiz-adv-x="435" d="M32 0q-12 0 -22 10t-10 22v72q0 12 10 20t22 8t20 -8t8 -20v-72q0 -12 -8 -22t-20 -10zM177 0q-12 0 -22 10t-10 22v72q0 12 10 20t22 8t20 -8t8 -20v-72q0 -12 -8 -22t-20 -10zM322 0q-12 0 -22 10t-10 22v72q0 12 10 20t22 8t20 -8t8 -20v-72q0 -12 -8 -22t-20 -10z " />
<glyph unicode="&#x2030;" horiz-adv-x="752" d="M105 360q-21 0 -40 11t-33 30.5t-22.5 44.5t-8.5 54q0 28 8.5 53t22.5 43.5t33 29t40 10.5t39 -10.5t31.5 -29t21.5 -43.5t8 -53q0 -29 -8 -54t-21.5 -44.5t-31.5 -30.5t-39 -11zM105 576q-15 0 -29.5 -21.5t-14.5 -54.5t14.5 -56.5t29.5 -23.5t27.5 23.5t12.5 56.5 t-12.5 54.5t-27.5 21.5zM373 636q9 -6 13.5 -19t-1.5 -25l-324 -576q-6 -6 -12.5 -11t-15.5 -5q-3 0 -8 2t-8 2q-9 6 -13.5 19t1.5 25l324 576q6 9 19 13.5t25 -1.5zM285 276q21 0 39 -10.5t31.5 -29t21.5 -43.5t8 -53q0 -29 -8 -54t-21.5 -44.5t-31.5 -30.5t-39 -11t-40 11 t-33 30.5t-22.5 44.5t-8.5 54q0 28 8.5 53t22.5 43.5t33 29t40 10.5zM285 60q15 0 27.5 23.5t12.5 56.5t-12.5 54.5t-27.5 21.5t-29.5 -21.5t-14.5 -54.5t14.5 -56.5t29.5 -23.5zM565 276q21 0 39 -10.5t31.5 -29t21.5 -43.5t8 -53q0 -29 -8 -54t-21.5 -44.5t-31.5 -30.5 t-39 -11t-40 11t-33 30.5t-22.5 44.5t-8.5 54q0 28 8.5 53t22.5 43.5t33 29t40 10.5zM565 60q15 0 27.5 23.5t12.5 56.5t-12.5 54.5t-27.5 21.5t-29.5 -21.5t-14.5 -54.5t14.5 -56.5t29.5 -23.5z" />
<glyph unicode="&#x2039;" horiz-adv-x="327" d="M271 372q9 -9 6.5 -21.5t-14.5 -18.5l-176 -120l176 -120q12 -6 14.5 -18.5t-6.5 -21.5q-3 -6 -10.5 -11t-13.5 -5q-8 0 -16 8l-216 144q-6 3 -11 9t-5 15t5 15t11 9l216 144q9 9 21.5 6.5t18.5 -14.5z" />
<glyph unicode="&#x203a;" horiz-adv-x="327" d="M11 372q6 12 18.5 14.5t21.5 -6.5l216 -144q6 -3 11 -9t5 -15t-5 -15t-11 -9l-216 -144q-3 -3 -8 -5.5t-8 -2.5q-6 0 -13.5 5t-10.5 11q-9 9 -6.5 21.5t14.5 18.5l176 120l-176 120q-12 6 -14.5 18.5t6.5 21.5z" />
<glyph unicode="&#x2044;" horiz-adv-x="212" d="M56 28q0 -12 -8 -20t-20 -8l-4 4q-12 0 -19.5 10t-4.5 22l108 576q0 12 10 19.5t22 4.5q12 0 19.5 -10t4.5 -22l-108 -576v0z" />
<glyph unicode="&#x20ac;" horiz-adv-x="504" d="M281 600q36 1 61 -9t41.5 -26t24 -34t9.5 -31q-1 -6 -3 -11t-5.5 -9.5t-11.5 -7.5q-9 -3 -15.5 -1t-11.5 6t-9 11q-2 4 -5.5 13.5t-12 18.5t-23.5 15t-39 5q-11 0 -27 -9t-33.5 -25.5t-34.5 -38.5t-29 -47h160q12 0 22 -10t10 -22t-10 -20t-22 -8h-184q0 -12 -2 -22 t-2 -22q0 -21 0.5 -39.5t3.5 -36.5h184q12 0 22 -10t10 -22t-10 -20t-22 -8h-176q6 -27 17 -48.5t30.5 -37t47.5 -24.5t69 -10l60 60q9 9 22 9t22 -9q20 -20 0 -40l-72 -72q-3 -3 -8.5 -5.5t-11.5 -2.5q-62 0 -104 14.5t-70 39.5t-43.5 57.5t-22.5 68.5h-48q-12 0 -20 8 t-8 20t8 22t20 10h44q-3 18 -3.5 38t-0.5 38q0 12 2 22t2 22h-44q-12 0 -20 8t-8 20t8 22t20 10h60q15 36 37.5 68.5t48 57.5t53 39.5t53.5 14.5z" />
<glyph unicode="&#x2122;" horiz-adv-x="573" d="M457 364q3 -12 -5 -22t-23 -10q-12 0 -20 8t-8 20l-8 108l-28 -56q-6 -6 -12.5 -11t-15.5 -5t-15.5 5t-12.5 11l-28 56l-4 -108q-3 -12 -11.5 -20t-20.5 -8q-15 0 -23 10t-5 22l12 208q0 12 6 20t18 8q20 7 32 -12l52 -96l52 96q12 19 32 12q12 0 18 -8t6 -20zM165 600 q12 0 20 -8t8 -20t-8 -22t-20 -10h-36v-176q0 -32 -32 -32q-12 0 -20 8.5t-8 23.5v176h-36q-12 0 -22 10t-10 22t10 20t22 8h132z" />
<glyph unicode="&#x2212;" horiz-adv-x="432" d="M32 180q-12 0 -22 10t-10 22t10 20t22 8h288q12 0 20 -8t8 -20t-8 -22t-20 -10h-288v0z" />
<glyph unicode="&#x25fc;" horiz-adv-x="385" d="M0 385h385v-385h-385v385z" />
<glyph unicode="&#xfb01;" horiz-adv-x="327" d="M241 500v-36q0 -12 -8 -22t-20 -10t-22 10t-10 22v24q-6 6 -18.5 11t-21.5 5q-5 0 -12 -1t-14.5 -5.5t-12.5 -12.5t-5 -21v-80h8q12 0 20 -8t8 -20t-8 -22t-20 -10h-8v-292q0 -12 -8 -22t-20 -10t-22 10t-10 22v292h-4q-12 0 -22 10t-10 22t10 20t22 8h4v80 q0 28 10.5 47.5t26.5 31t34 16.5t33 5q18 0 34 -6.5t28.5 -14t20 -15t9.5 -8.5h4v-4h4v-4v-4v-4v-4zM213 384q12 0 20 -8t8 -20v-324q0 -12 -8 -22t-20 -10t-22 10t-10 22v324q0 12 10 20t22 8z" />
<glyph unicode="&#xfb02;" horiz-adv-x="361" d="M33 324q-12 0 -22 10t-10 22t10 20t22 8h4v80q0 28 10.5 47.5t26.5 31t34 16.5t33 5q18 0 34 -6.5t28.5 -14t20 -15t9.5 -8.5h4v-4h4v-4v-4v-4v-4v-360q1 0 2.5 -12.5t6 -27.5t12.5 -27.5t23 -12.5q12 0 20 -8t8 -20t-8 -22t-20 -10q-30 0 -50 15t-32 37t-17 46t-5 42 v348q-6 6 -18.5 11t-21.5 5q-5 0 -12 -1t-14.5 -5.5t-12.5 -12.5t-5 -21v-80h8q12 0 20 -8t8 -20t-8 -22t-20 -10h-8v-292q0 -12 -8 -22t-20 -10t-22 10t-10 22v292h-4v0z" />
</font>
</defs>
</svg>
